<svg xmlns="http://www.w3.org/2000/svg" width="24" height="24" viewBox="0 0 24 24" fill="none">
  <g clip-path="url(#clip0_1155_123161)">
    <path d="M12.7201 2.02995C6.63007 1.59995 1.60007 6.62995 2.03007 12.7199C2.39007 18.0099 7.01007 21.9999 12.3101 21.9999H16.0001C16.5501 21.9999 17.0001 21.5499 17.0001 20.9999C17.0001 20.4499 16.5501 19.9999 16.0001 19.9999H12.3301C8.60007 19.9999 5.18007 17.5799 4.25007 13.9699C2.76007 8.16995 8.16007 2.75995 13.9601 4.25995C17.5801 5.17995 20.0001 8.59995 20.0001 12.3299V13.4299C20.0001 14.2199 19.2901 14.9999 18.5001 14.9999C17.7101 14.9999 17.0001 14.2199 17.0001 13.4299V12.1799C17.0001 9.66995 15.2201 7.40995 12.7401 7.05995C9.34007 6.56995 6.47007 9.50995 7.08007 12.9299C7.42007 14.8399 8.91007 16.4199 10.8001 16.8699C12.6401 17.2999 14.3901 16.7099 15.5401 15.5399C16.4301 16.7599 18.2101 17.3999 19.8401 16.7499C21.1801 16.2199 22.0001 14.8499 22.0001 13.4099V12.3199C22.0001 7.00995 18.0101 2.38995 12.7201 2.02995ZM12.0001 14.9999C10.3401 14.9999 9.00007 13.6599 9.00007 11.9999C9.00007 10.3399 10.3401 8.99995 12.0001 8.99995C13.6601 8.99995 15.0001 10.3399 15.0001 11.9999C15.0001 13.6599 13.6601 14.9999 12.0001 14.9999Z" fill="#261A1A"/>
  </g>
  <defs>
    <clipPath id="clip0_1155_123161">
      <rect width="24" height="24" fill="white"/>
    </clipPath>
  </defs>
</svg>