<?xml version="1.0" encoding="UTF-8"?>
<svg id="Layer_1" data-name="Layer 1" xmlns="http://www.w3.org/2000/svg" viewBox="0 0 40 40">
  <defs>
    <style>
      .cls-1 {
        fill: currentColor;
        stroke-width: 0px;
      }
    </style>
  </defs>
  <path class="cls-1" d="M15.4,20.63h2.13v8.78c0,.17.14.31.31.31h3.61c.17,0,.31-.14.31-.31v-8.73h2.45c.16,0,.29-.12.31-.28l.37-3.23c.01-.09-.02-.18-.08-.24-.06-.07-.14-.1-.23-.1h-2.82v-2.03c0-.61.33-.92.98-.92h1.85c.17,0,.31-.14.31-.31v-2.97c0-.17-.14-.31-.31-.31h-2.54s-.06,0-.12,0c-.44,0-1.98.09-3.19,1.2-1.34,1.24-1.16,2.71-1.11,2.97v2.37h-2.24c-.17,0-.31.14-.31.31v3.19c0,.17.14.31.31.31Z" fill="currentColor"/>
  <path class="cls-1" d="M20,40C8.97,40,0,31.03,0,20S8.97,0,20,0s20,8.97,20,20-8.97,20-20,20ZM20,.83C9.43.83.83,9.43.83,20s8.6,19.17,19.17,19.17,19.17-8.6,19.17-19.17S30.57.83,20,.83Z" fill="currentColor"/>
</svg>