<?xml version="1.0" encoding="UTF-8"?>
<svg id="Layer_1" data-name="Layer 1" xmlns="http://www.w3.org/2000/svg" viewBox="0 0 40 40">
  <defs>
    <style>
      .cls-1 {
        fill: currentColor;
        stroke-width: 0px;
      }
    </style>
  </defs>
  <path class="cls-1" d="M20,40C8.97,40,0,31.03,0,20S8.97,0,20,0s20,8.97,20,20-8.97,20-20,20ZM20,.83C9.43.83.83,9.43.83,20s8.6,19.17,19.17,19.17,19.17-8.6,19.17-19.17S30.57.83,20,.83Z" fill="currentColor"/>
  <path class="cls-1" d="M20.86,11.67c.61,0,1.22,0,1.82.02h.16c.19.01.37.02.59.03.89.04,1.49.18,2.02.39.55.21,1.01.5,1.48.96.42.42.75.92.96,1.48.21.53.35,1.14.39,2.02,0,.22.02.41.02.59v.16c.02.61.03,1.22.02,1.82v.62s0,1.09,0,1.09c0,.61,0,1.22-.02,1.82v.16c-.01.19-.02.37-.03.59-.04.89-.18,1.49-.39,2.02-.21.56-.54,1.06-.96,1.48-.42.42-.92.75-1.48.96-.53.21-1.14.35-2.02.39-.22.01-.41.02-.59.02h-.16c-.61.02-1.22.03-1.82.02h-.62s-1.09,0-1.09,0c-.61,0-1.22,0-1.82-.02h-.16c-.2-.01-.4-.02-.59-.03-.89-.04-1.49-.18-2.02-.39-.56-.21-1.06-.54-1.48-.96-.42-.42-.75-.92-.96-1.48-.21-.53-.35-1.14-.39-2.02,0-.2-.02-.4-.03-.59v-.16c-.02-.61-.03-1.22-.02-1.82v-1.71c0-.61,0-1.22.02-1.82v-.16c.01-.19.02-.37.03-.59.04-.89.18-1.49.39-2.02.21-.56.54-1.06.96-1.47.42-.42.92-.75,1.47-.96.53-.21,1.14-.35,2.02-.39l.59-.02h.16c.61-.02,1.22-.03,1.82-.02h1.71ZM20,15.83c-.55,0-1.1.09-1.61.3-.51.21-.98.51-1.37.9s-.71.85-.92,1.36c-.21.51-.32,1.06-.32,1.61s.11,1.1.32,1.61c.21.51.53.97.92,1.36.39.39.86.69,1.37.9.51.21,1.06.31,1.61.3,1.11,0,2.16-.44,2.95-1.22.78-.78,1.22-1.84,1.22-2.95s-.44-2.16-1.22-2.95c-.78-.78-1.84-1.22-2.95-1.22ZM20,17.5c.33,0,.66.05.97.18s.59.31.83.54c.24.23.43.51.55.82.13.31.19.64.19.97,0,.33-.07.66-.19.97-.13.31-.32.58-.55.82-.24.23-.52.42-.83.54-.31.12-.64.18-.97.18-.66,0-1.3-.26-1.77-.73-.47-.47-.73-1.1-.73-1.77s.26-1.3.73-1.77c.47-.47,1.1-.73,1.77-.73h0ZM24.38,14.58c-.27.01-.52.13-.71.32-.19.19-.29.45-.29.72s.1.53.29.72c.19.19.44.31.71.32.28,0,.54-.11.74-.31.2-.2.31-.46.31-.74s-.11-.54-.31-.74c-.2-.2-.46-.31-.74-.31h0Z" fill="currentColor"/>
</svg>