<?xml version="1.0" encoding="UTF-8"?>
<svg id="Layer_1" data-name="Layer 1" xmlns="http://www.w3.org/2000/svg" viewBox="0 0 40 40">
  <defs>
    <style>
      .cls-1, .cls-2 {
        fill: currentColor;
        stroke-width: 0px;
      }

      .cls-2 {
        fill-rule: evenodd;
      }
    </style>
  </defs>
  <path class="cls-1" d="M19.79,40C8.76,40-.21,31.03-.21,20S8.76,0,19.79,0s20,8.97,20,20-8.97,20-20,20ZM19.79.83C9.22.83.62,9.43.62,20s8.6,19.17,19.17,19.17,19.17-8.6,19.17-19.17S30.36.83,19.79.83Z"/>
  <g id="Page-1">
    <g id="Dribbble-Light-Preview">
      <g id="icons">
        <path id="google_plus-_165_" data-name="google_plus-[#165]" class="cls-2" d="M29.34,18.49v-2.2h-2.34v2.2h-2.34v2.2h2.34v2.2h2.34v-2.2h2.34v-2.2h-2.34ZM22.8,18.49c.06,0,.12.96.12,1.42,0,4-2.85,7.1-7.15,7.1s-7.45-3.14-7.45-7.01,3.33-7.01,7.45-7.01c2.01,0,3.69.68,4.99,1.82l-2.02,1.81c-.55-.5-1.52-1.13-2.97-1.13-2.54,0-4.62,1.89-4.62,4.33s2.08,4.24,4.62,4.24c2.95,0,4.06-2.28,4.23-3.38h-4.67v-2.2h7.48Z"/>
      </g>
    </g>
  </g>
</svg>