<?xml version="1.0" encoding="UTF-8"?>
<svg id="Layer_1" data-name="Layer 1" xmlns="http://www.w3.org/2000/svg" viewBox="0 0 40 40">
  <defs>
    <style>
      .cls-1 {
        fill: currentColor;
        stroke-width: 0px;
      }
    </style>
  </defs>
  <path class="cls-1" d="M20,40C8.97,40,0,31.03,0,20S8.97,0,20,0s20,8.97,20,20-8.97,20-20,20ZM20,.83C9.43.83.83,9.43.83,20s8.6,19.17,19.17,19.17,19.17-8.6,19.17-19.17S30.57.83,20,.83Z" fill="currentColor"/>
  <g id="_7935ec95c421cee6d86eb22ecd12951c" data-name="7935ec95c421cee6d86eb22ecd12951c">
    <path class="cls-1" d="M18.69,23.05c-.5,2.6-1.1,5.1-2.9,6.41-.56-3.94.81-6.89,1.45-10.03-1.08-1.82.13-5.5,2.42-4.59,2.81,1.11-2.44,6.79,1.09,7.49,3.68.74,5.18-6.39,2.9-8.7-3.3-3.35-9.6-.08-8.82,4.71.19,1.17,1.4,1.53.48,3.14-2.11-.47-2.74-2.13-2.66-4.35.13-3.63,3.26-6.17,6.41-6.53,3.97-.44,7.7,1.46,8.22,5.2.58,4.22-1.79,8.79-6.04,8.46-1.15-.09-1.64-.66-2.54-1.21Z" fill="currentColor"/>
  </g>
</svg>