<?xml version="1.0" encoding="UTF-8"?>
<svg id="Layer_1" data-name="Layer 1" xmlns="http://www.w3.org/2000/svg" viewBox="0 0 40 40">
  <defs>
    <style>
      .cls-1, .cls-2 {
        fill: currentColor;
        stroke-width: 0px;
      }

      .cls-2 {
        fill-rule: evenodd;
      }
    </style>
  </defs>
  <path class="cls-1" d="M20,40C8.97,40,0,31.03,0,20S8.97,0,20,0s20,8.97,20,20-8.97,20-20,20ZM20,.83C9.43.83.83,9.43.83,20s8.6,19.17,19.17,19.17,19.17-8.6,19.17-19.17S30.57.83,20,.83Z"/>
  <g id="Page-1">
    <g id="Dribbble-Light-Preview">
      <g id="icons">
        <path id="vimeo-_144_" data-name="vimeo-[#144]" class="cls-2" d="M27.77,16.96c-.08,1.6-1.21,3.8-3.42,6.58-2.28,2.91-4.2,4.36-5.78,4.36-.98,0-1.8-.89-2.48-2.66l-1.35-4.88c-.5-1.78-1.04-2.66-1.61-2.66-.13,0-.56.26-1.31.78l-.79-1c.83-.72,1.64-1.43,2.44-2.15,1.1-.94,1.93-1.43,2.48-1.48,1.3-.12,2.1.75,2.4,2.63.32,2.02.55,3.28.68,3.77.38,1.68.79,2.51,1.24,2.51.35,0,.88-.54,1.58-1.63.7-1.09,1.08-1.91,1.13-2.48.1-.94-.28-1.4-1.13-1.4-.4,0-.81.09-1.24.26.83-2.64,2.4-3.92,4.73-3.85,1.73.05,2.54,1.15,2.44,3.29h0Z"/>
      </g>
    </g>
  </g>
</svg>