<svg xmlns="http://www.w3.org/2000/svg" xmlns:xlink="http://www.w3.org/1999/xlink" width="24" height="24" viewBox="0 0 24 24">
  <defs>
    <clipPath id="clip-call">
      <rect width="24" height="24"/>
    </clipPath>
  </defs>
  <g id="call" clip-path="url(#clip-call)">
    <g id="Group_28287" data-name="Group 28287">
      <path id="Path_64649" data-name="Path 64649" d="M0,0H24V24H0Z" fill="none"/>
      <path id="Path_64650" data-name="Path 64650" d="M6.151,9.78a13.185,13.185,0,0,0,5.736,5.736L13.8,13.6a.865.865,0,0,1,.888-.209,9.928,9.928,0,0,0,3.107.5.873.873,0,0,1,.87.87V17.8a.873.873,0,0,1-.87.87A14.8,14.8,0,0,1,3,3.87.873.873,0,0,1,3.87,3H6.917a.873.873,0,0,1,.87.87,9.888,9.888,0,0,0,.5,3.107.873.873,0,0,1-.218.888Z" transform="translate(1.167 1.167)" fill="none" stroke="currentColor" stroke-miterlimit="10" stroke-width="0.9"/>
    </g>
  </g>
</svg>
