<svg width="40" height="41" viewBox="0 0 40 41" fill="none" xmlns="http://www.w3.org/2000/svg">
<rect y="0.5" width="40" height="40" rx="20" fill="white"/>
<g clip-path="url(#clip0_5524_14990)">
<path d="M10.2754 18.5672C10.2754 18.4341 10.2754 18.2971 10.2754 18.164C10.3704 18.0915 10.3894 17.9665 10.4806 17.8859C11.0888 17.3738 11.6931 16.8578 12.3013 16.3418C12.3393 16.3095 12.3583 16.2773 12.3659 16.2248C12.4305 15.7531 12.4951 15.2855 12.5597 14.8138C12.6092 14.4751 12.651 14.1324 12.7156 13.7978C12.765 13.5559 12.8904 13.3423 13.1375 13.2898C13.548 13.2052 13.9623 13.1487 14.3728 13.0802C14.7529 13.0157 15.1368 12.9472 15.5169 12.8786C15.5625 12.8706 15.5929 12.8464 15.6233 12.8061C15.9008 12.4392 16.1706 12.0642 16.4633 11.7054C16.756 11.3466 16.9764 10.9112 17.3755 10.6572C17.4781 10.6572 17.577 10.6572 17.6796 10.6572C18.3258 10.9515 18.9871 11.1975 19.6409 11.4635C19.8043 11.5321 19.9678 11.653 20.154 11.5401C20.3402 11.4273 20.5493 11.3547 20.7507 11.2821C21.2791 11.0926 21.7922 10.8588 22.3167 10.6572C22.4041 10.6572 22.4954 10.6572 22.5828 10.6572C22.7196 10.7258 22.8451 10.8064 22.9439 10.9314C23.2898 11.3869 23.6356 11.8465 23.9853 12.2981C24.2058 12.5803 24.3692 12.9472 24.7987 12.9431C24.8747 12.9431 24.9508 12.9512 25.023 12.9633C25.5437 13.052 26.0644 13.1487 26.589 13.2334C26.8778 13.2818 27.1781 13.3463 27.2427 13.693C27.372 14.3784 27.4556 15.0758 27.5658 15.7652C27.6 15.9709 27.5658 16.2087 27.7292 16.3619C28.0029 16.6159 28.3032 16.8336 28.5768 17.0876C28.9645 17.4504 29.4359 17.7165 29.7285 18.1923C29.7285 18.3132 29.7285 18.4341 29.7285 18.5551C29.5613 18.8857 29.4663 19.2445 29.3484 19.5912C29.2724 19.8129 29.2078 20.0427 29.1128 20.2484C28.9151 20.6676 28.7479 21.0627 29.0292 21.5102C29.0406 21.5264 29.0406 21.5465 29.0482 21.5667C29.2762 22.1875 29.5043 22.8084 29.7323 23.4293C29.7323 23.5502 29.7323 23.6712 29.7323 23.7921C29.6297 23.905 29.5385 24.034 29.4245 24.1348C28.9265 24.5702 28.4172 24.9895 27.9193 25.4249C27.7901 25.5378 27.6152 25.6265 27.6152 25.8523C27.6152 25.9369 27.5886 26.0216 27.5734 26.1022C27.4746 26.719 27.3834 27.3399 27.3035 27.9608C27.2503 28.3881 27.0755 28.6381 26.722 28.7026C25.9922 28.8316 25.2586 28.9485 24.5251 29.0654C24.449 29.0775 24.392 29.1057 24.3464 29.1622C24.0005 29.6178 23.6661 30.0814 23.3088 30.5289C23.0921 30.803 22.9287 31.1457 22.5866 31.2868C22.4726 31.2868 22.3585 31.2868 22.2445 31.2868C22.2331 31.2384 22.1875 31.2344 22.1571 31.2223C21.6402 31.0127 21.1232 30.799 20.6025 30.5974C20.3136 30.4886 20.0362 30.2306 19.7017 30.4724C19.6751 30.4926 19.6333 30.5047 19.6029 30.5168C19.2152 30.6821 18.8237 30.8393 18.4322 31.0006C18.1851 31.1014 17.9229 31.1498 17.6872 31.2828C17.5846 31.2828 17.4857 31.2828 17.3831 31.2828C17.2805 31.186 17.1513 31.1296 17.0638 31.0086C16.6305 30.4321 16.1896 29.8596 15.7487 29.2872C15.6537 29.1662 15.5739 29.0533 15.3876 29.0493C15.2128 29.0493 15.0303 28.9969 14.8517 28.9687C14.3348 28.884 13.8217 28.7832 13.3047 28.7026C12.9893 28.6542 12.7574 28.4284 12.708 28.0898C12.6776 27.868 12.6472 27.6463 12.613 27.4246C12.5445 26.9609 12.4875 26.4973 12.4001 26.0377C12.3735 25.8926 12.4267 25.7192 12.3013 25.6063C11.963 25.308 11.6171 25.0258 11.2826 24.7234C10.9444 24.417 10.5453 24.1791 10.2754 23.7841C10.2754 23.651 10.2754 23.5139 10.2754 23.3809C10.5643 22.5988 10.8493 21.8166 11.142 21.0345C11.1724 20.9539 11.1344 20.8934 11.1078 20.8531C11.0242 20.708 11.009 20.5386 10.9368 20.3975C10.8113 20.1516 10.7391 19.8855 10.6517 19.6275C10.5339 19.2888 10.4236 18.922 10.2754 18.5672ZM16.3531 25.4773C16.3607 25.5902 16.3569 25.6708 16.3949 25.7555C16.6115 26.2433 17.1817 26.2836 17.4933 25.824C17.843 25.304 18.1889 24.7758 18.5386 24.2557C19.2874 23.1471 20.0362 22.0384 20.785 20.9297C21.2601 20.2242 21.7352 19.5186 22.2103 18.8131C22.6512 18.156 23.0921 17.4988 23.5292 16.8376C23.7193 16.5514 23.6585 16.2692 23.495 16.0475C23.3582 15.862 23.0389 15.7814 22.807 15.8701C22.6094 15.9467 22.5068 16.1321 22.4003 16.3014C21.5831 17.5593 20.7165 18.7809 19.8993 20.0427C19.6029 20.5023 19.2836 20.9458 18.9757 21.3974C18.1509 22.6028 17.3375 23.8163 16.5203 25.0298C16.4291 25.1669 16.3227 25.308 16.3531 25.4773ZM20.002 24.2195C19.9449 25.1911 20.823 26.2836 21.967 26.1425C22.8793 26.0296 23.6432 25.312 23.6394 24.2033C23.6318 23.0664 22.8717 22.2883 21.8074 22.2803C20.7773 22.2762 19.9716 23.1954 20.002 24.2195ZM18.1661 19.696C19.1734 19.7122 20.002 18.8534 19.9944 17.7286C19.9868 16.7207 19.2342 15.8096 18.1623 15.8297C17.1323 15.8499 16.3645 16.7248 16.3493 17.7528C16.3341 18.793 17.2083 19.7323 18.1661 19.696Z" fill="var(--successText)"/>
<path d="M29.7284 23.4455C29.5004 22.8246 29.2723 22.2037 29.0443 21.5829C29.0367 21.5627 29.0367 21.5426 29.0253 21.5264C28.744 21.083 28.9112 20.6838 29.1089 20.2646C29.2077 20.0589 29.2685 19.8291 29.3445 19.6074C29.4662 19.2607 29.5612 18.8978 29.7246 18.5713C29.7284 20.192 29.7284 21.8167 29.7284 23.4455Z" fill="white"/>
<path d="M22.3202 10.6689C21.7957 10.8665 21.2826 11.1044 20.7543 11.2938C20.5566 11.3664 20.3476 11.439 20.1575 11.5519C19.9713 11.6647 19.8116 11.5438 19.6444 11.4753C18.9906 11.2092 18.3255 10.9633 17.6831 10.6689C19.2301 10.6689 20.7733 10.6689 22.3202 10.6689Z" fill="white"/>
<path d="M17.6831 31.3032C17.9188 31.1661 18.181 31.1218 18.4281 31.021C18.8196 30.8597 19.2111 30.7025 19.5988 30.5372C19.633 30.5211 19.671 30.513 19.6976 30.4928C20.0359 30.2509 20.3095 30.509 20.5984 30.6178C21.1191 30.8154 21.6361 31.029 22.153 31.2427C22.1834 31.2548 22.229 31.2588 22.2404 31.3072C20.7238 31.3032 19.2035 31.3032 17.6831 31.3032Z" fill="white"/>
<path d="M10.2754 18.5674C10.4236 18.9222 10.5339 19.289 10.6555 19.6519C10.7391 19.9099 10.8151 20.176 10.9406 20.4219C11.0128 20.563 11.028 20.7323 11.1116 20.8775C11.1344 20.9218 11.1762 20.9783 11.1458 21.0589C10.8531 21.837 10.5681 22.6232 10.2792 23.4053C10.2754 21.7926 10.2754 20.18 10.2754 18.5674Z" fill="white"/>
<path d="M16.3532 25.477C16.319 25.3117 16.4254 25.1666 16.5205 25.0295C17.3339 23.816 18.1511 22.6025 18.9759 21.3971C19.2837 20.9455 19.603 20.5021 19.8995 20.0425C20.7129 18.7806 21.5795 17.559 22.4005 16.3012C22.5107 16.1359 22.6095 15.9464 22.8072 15.8698C23.0391 15.7811 23.3583 15.8577 23.4952 16.0472C23.6586 16.2689 23.7194 16.5511 23.5294 16.8374C23.0923 17.4985 22.6514 18.1557 22.2105 18.8128C21.7353 19.5184 21.2602 20.2239 20.7851 20.9294C20.0363 22.0381 19.2837 23.1428 18.5388 24.2555C18.1891 24.7755 17.8432 25.3037 17.4935 25.8238C17.1818 26.2834 16.6117 26.2471 16.395 25.7552C16.3608 25.6706 16.3608 25.5859 16.3532 25.477Z" fill="#FAFAF9"/>
<path d="M20.0021 24.2195C19.9717 23.1955 20.7775 22.2723 21.8038 22.2803C22.868 22.2884 23.632 23.0665 23.6358 24.2034C23.6434 25.3121 22.8794 26.0297 21.9634 26.1426C20.8231 26.2837 19.9451 25.1911 20.0021 24.2195ZM21.2184 24.2115C21.1728 24.5259 21.5453 24.8767 21.8038 24.8605C22.1383 24.8404 22.4423 24.538 22.4309 24.1994C22.4195 23.8567 22.1269 23.5583 21.8038 23.5664C21.4541 23.5745 21.1842 23.9171 21.2184 24.2115Z" fill="#FAFAF9"/>
<path d="M18.1663 19.6957C17.2084 19.736 16.338 18.7926 16.3532 17.7525C16.3684 16.7244 17.1362 15.8496 18.1663 15.8294C19.2381 15.8093 19.9907 16.7204 19.9983 17.7283C20.0021 18.8531 19.1735 19.7118 18.1663 19.6957ZM17.5695 17.7727C17.5695 18.1234 17.8318 18.4096 18.1587 18.4056C18.5007 18.4016 18.7554 18.1677 18.782 17.7525C18.801 17.4219 18.4893 17.1236 18.1397 17.1155C17.847 17.1115 17.5201 17.4703 17.5695 17.7727Z" fill="#FAFAF9"/>
<path d="M21.2182 24.2116C21.184 23.9173 21.4538 23.5787 21.8035 23.5666C22.1266 23.5585 22.4193 23.8568 22.4307 24.1995C22.4421 24.5382 22.1342 24.8405 21.8035 24.8607C21.5451 24.8768 21.1726 24.5221 21.2182 24.2116Z" fill="var(--successText)"/>
<path d="M17.5692 17.7724C17.516 17.47 17.8429 17.1112 18.1394 17.1193C18.489 17.1273 18.8007 17.4216 18.7817 17.7563C18.7551 18.1675 18.5004 18.4053 18.1584 18.4094C17.8353 18.4053 17.573 18.1231 17.5692 17.7724Z" fill="var(--successText)"/>
</g>
<defs>
<clipPath id="clip0_5524_14990">
<rect width="24" height="24" fill="white" transform="translate(8 8.5)"/>
</clipPath>
</defs>
</svg>
