<svg xmlns="http://www.w3.org/2000/svg" width="200" height="200" viewBox="0 0 200 200" fill="none">
<path d="M162.283 60V66.2857" stroke="var(--buttonPrimary)" stroke-width="1.71429" stroke-miterlimit="10"/>
<path d="M159.426 63.4287H165.14" stroke="var(--buttonPrimary)" stroke-width="1.71429" stroke-miterlimit="10"/>
<path d="M36.5703 36.572V42.8577" stroke="var(--buttonPrimary)" stroke-width="1.71429" stroke-miterlimit="10"/>
<path d="M33.1367 39.4277H39.4224" stroke="var(--buttonPrimary)" stroke-width="1.71429" stroke-miterlimit="10"/>
<path d="M84.284 25.1423C85.0727 25.1423 85.7126 24.5024 85.7126 23.7137C85.7126 22.9251 85.0727 22.2852 84.284 22.2852C83.4954 22.2852 82.8555 22.9251 82.8555 23.7137C82.8555 24.5024 83.4954 25.1423 84.284 25.1423Z" fill="var(--buttonPrimary)"/>
<path d="M128.986 80.4973C117.023 80.4973 104.846 80.0109 93.4522 76.8429C82.275 73.7451 72.0117 67.7315 62.8653 60.779C56.877 56.2532 51.4303 52.6534 43.656 53.197C36.0431 53.6132 28.766 56.4665 22.9027 61.3356C13.0117 69.9033 14.4984 85.9386 18.4584 97.2062C24.405 114.17 42.5 125.921 57.8794 133.605C75.6463 142.472 95.1706 147.614 114.739 150.582C131.892 153.18 153.931 155.079 168.798 143.884C182.448 133.602 186.192 110.128 182.849 94.2775C182.039 89.5904 179.543 85.3612 175.83 82.383C166.238 75.3863 151.931 80.0551 141.155 80.297C137.154 80.3828 133.079 80.4817 128.991 80.4973H128.986Z" stroke="var(--buttonPrimary)" stroke-width="1.71429" stroke-miterlimit="10"/>
<path d="M99.7154 178.287C128.591 178.287 152.001 176.88 152.001 175.145C152.001 173.409 128.591 172.002 99.7154 172.002C70.8393 172.002 47.4297 173.409 47.4297 175.145C47.4297 176.88 70.8393 178.287 99.7154 178.287Z" fill="var(--buttonPrimary)"/>
<path d="M121.844 26.8946L52.1021 36.3318C49.8694 36.6335 48.302 38.6911 48.6035 40.9255L62.1272 141.033C62.4287 143.268 64.4847 144.836 66.7174 144.535L136.459 135.097C138.692 134.796 140.259 132.738 139.958 130.504L126.434 30.3958C126.133 28.1614 124.077 26.5929 121.844 26.8946Z" fill="var(--buttonPrimary)"/>
<path d="M145.074 41.7129H74.9231C72.6769 41.7129 70.8555 43.5408 70.8555 45.7952V146.773C70.8555 149.028 72.6769 150.856 74.9231 150.856H145.074C147.32 150.856 149.141 149.028 149.141 146.773V45.7952C149.141 43.5408 147.32 41.7129 145.074 41.7129Z" fill="var(--pageBackground)" stroke="var(--buttonPrimary)" stroke-width="1.71429" stroke-miterlimit="10"/>
<path d="M142.77 45.1445H77.2293C75.6024 45.1445 74.2852 46.4525 74.2852 48.0682V104.507C74.2852 106.122 75.6024 107.43 77.2293 107.43H142.77C144.397 107.43 145.714 106.122 145.714 104.507V48.0682C145.714 46.4525 144.397 45.1445 142.77 45.1445Z" fill="var(--pageBackground)" stroke="var(--buttonPrimary)" stroke-width="1.71429" stroke-miterlimit="10"/>
<path d="M118.89 90.1306C119.358 90.1202 119.812 89.9663 120.191 89.6925C120.57 89.4186 120.857 89.0352 121.011 88.5918C121.168 88.151 121.184 87.6711 121.061 87.2199C120.938 86.7687 120.679 86.3644 120.322 86.0645C117.33 83.5919 113.558 82.2513 109.673 82.2878C105.788 82.3217 102.042 83.7249 99.0951 86.2523C98.7398 86.5522 98.4838 86.9539 98.3636 87.4025C98.2434 87.8511 98.2617 88.3258 98.4158 88.7639C98.5726 89.2021 98.8574 89.5829 99.2336 89.8542C99.6098 90.1254 100.062 90.2767 100.527 90.2871L118.885 90.1306H118.89Z" fill="var(--pageBackground)" stroke="var(--buttonPrimary)" stroke-width="1.71429" stroke-miterlimit="10"/>
<path d="M130.285 75.43L122.285 70.8647L130.285 66.2871" fill="var(--pageBackground)"/>
<path d="M130.285 75.43L122.285 70.8647L130.285 66.2871" stroke="var(--buttonPrimary)" stroke-width="1.71429" stroke-miterlimit="10"/>
<path d="M89.1406 75.4297L97.1406 70.8645L89.1406 66.2869" fill="var(--pageBackground)"/>
<path d="M89.1406 75.4297L97.1406 70.8645L89.1406 66.2869" stroke="var(--buttonPrimary)" stroke-width="1.71429" stroke-miterlimit="10"/>
<path d="M43.4297 106.285V112" stroke="var(--buttonPrimary)" stroke-width="1.71429" stroke-miterlimit="10"/>
<path d="M40.5703 109.142H46.2846" stroke="var(--buttonPrimary)" stroke-width="1.71429" stroke-miterlimit="10"/>
<path d="M159.712 110.287C160.5 110.287 161.14 109.647 161.14 108.858C161.14 108.07 160.5 107.43 159.712 107.43C158.923 107.43 158.283 108.07 158.283 108.858C158.283 109.647 158.923 110.287 159.712 110.287Z" fill="var(--buttonPrimary)"/>
<path d="M96.5424 138.398V133.254H87.7637V131.569L96.194 119.507H98.9547V131.252H101.598V133.256H98.9547V138.401H96.5398L96.5424 138.398ZM96.5424 131.249V124.943C96.5424 123.952 96.5709 122.964 96.6307 121.977H96.5424C95.9627 123.081 95.4973 123.895 94.9722 124.766L90.3502 131.189V131.247H96.5424V131.249Z" fill="var(--buttonPrimary)"/>
<path d="M116.113 128.747C116.113 135.171 113.729 138.717 109.546 138.717C105.855 138.717 103.354 135.257 103.297 129.007C103.297 122.672 106.032 119.184 109.866 119.184C113.7 119.184 116.115 122.729 116.115 128.747H116.113ZM105.852 129.038C105.852 133.952 107.363 136.741 109.689 136.741C112.304 136.741 113.555 133.689 113.555 128.864C113.555 124.04 112.364 121.162 109.718 121.162C107.482 121.162 105.852 123.894 105.852 129.038Z" fill="var(--buttonPrimary)"/>
<path d="M126.376 138.398V133.253H117.598V131.569L126.028 119.507H128.789V131.252H131.435V133.256H128.789V138.4H126.376V138.398ZM126.376 131.249V124.942C126.376 123.952 126.405 122.964 126.465 121.976H126.376C125.797 123.081 125.331 123.895 124.806 124.766L120.184 131.189V131.246H126.376V131.249Z" fill="var(--buttonPrimary)"/>
</svg>