<svg xmlns="http://www.w3.org/2000/svg" width="200" height="201" viewBox="0 0 200 201" fill="none">
<path d="M130.967 81.2708C118.299 81.2708 105.435 80.7592 93.3865 77.428C81.5647 74.1708 70.711 67.8517 61.037 60.5417C54.6881 55.7844 48.9439 51.9861 40.706 52.5569C32.6597 52.9993 24.9693 55.9994 18.7722 61.1125C8.29684 70.2093 9.88469 87.0363 14.0559 98.8639C20.3601 116.682 39.4815 129.065 55.7633 137.124C74.5537 146.446 95.1884 151.819 115.898 154.972C134.039 157.72 157.334 159.7 173.053 147.946C187.505 137.139 191.465 112.446 187.929 95.7847C187.065 90.8619 184.419 86.421 180.492 83.2973C170.348 75.9279 155.216 80.8507 143.82 81.0904C139.586 81.2708 135.293 81.2708 130.97 81.2708H130.967Z" stroke="var(--buttonPrimary)" stroke-width="1.71429" stroke-miterlimit="10"/>
<path d="M100.287 184.5C130.741 184.5 155.43 182.964 155.43 181.071C155.43 179.178 130.741 177.643 100.287 177.643C69.8335 177.643 45.1445 179.178 45.1445 181.071C45.1445 182.964 69.8335 184.5 100.287 184.5Z" fill="var(--buttonPrimary)"/>
<path d="M172.286 62.784C173.076 62.784 173.715 62.0177 173.715 61.0698C173.715 60.1219 173.074 59.3555 172.286 59.3555C171.498 59.3555 170.857 60.1247 170.857 61.0698C170.857 62.0148 171.498 62.784 172.286 62.784Z" fill="var(--buttonPrimary)"/>
<path d="M27.1454 39.3571C27.9353 39.3571 28.5739 38.7161 28.5739 37.9286C28.5739 37.1411 27.9329 36.5 27.1454 36.5C26.3579 36.5 25.7168 37.1387 25.7168 37.9286C25.7168 38.7185 26.3555 39.3571 27.1454 39.3571Z" fill="var(--buttonPrimary)"/>
<path d="M146.573 167.928C147.363 167.928 148.002 167.29 148.002 166.5C148.002 165.71 147.363 165.071 146.573 165.071C145.783 165.071 145.145 165.712 145.145 166.5C145.145 167.287 145.786 167.928 146.573 167.928Z" fill="var(--buttonPrimary)"/>
<path d="M49.4297 37.834V44.3274" stroke="var(--buttonPrimary)" stroke-width="1.71429" stroke-miterlimit="10"/>
<path d="M46.1836 41.0801H52.692" stroke="var(--buttonPrimary)" stroke-width="1.71429" stroke-miterlimit="10"/>
<path d="M155.496 65.3281V71.8365" stroke="var(--buttonPrimary)" stroke-width="1.71429" stroke-miterlimit="10"/>
<path d="M152.25 68.5898H158.743" stroke="var(--buttonPrimary)" stroke-width="1.71429" stroke-miterlimit="10"/>
<path d="M92.8214 29.5121C93.4113 25.9218 94.4775 22.261 96.7966 19.3847C98.9745 16.6819 102.367 15.6384 105.75 15.9955C113.163 16.7799 116.357 24.1919 117.807 30.5782C118.631 34.2138 119.029 37.9449 119.327 41.656C119.546 44.4116 119.634 47.5947 119.987 50.1165C120.189 51.5546 117.983 52.1756 117.779 50.7224C116.856 44.1376 117.028 37.4873 115.546 30.9603C114.147 24.7929 110.721 17.1872 103.073 18.2784C96.7109 19.1861 95.2766 27.3524 94.6968 32.5242C93.928 39.3705 94.4296 46.242 94.4397 53.1084C94.4397 54.5818 92.1534 54.5818 92.1509 53.1084C92.1408 45.2262 91.5359 37.3365 92.8214 29.5096V29.5121Z" fill="var(--pageBackground, #f8f8f8)" stroke="var(--buttonPrimary)" stroke-width="1.71429" stroke-miterlimit="10"/>
<path d="M133.62 44.2465L130.239 42.2148L126.857 143.033L134.286 157.072L133.62 44.2465Z" fill="var(--buttonPrimary)" stroke="var(--buttonPrimary)" stroke-width="1.71429" stroke-miterlimit="10" stroke-linejoin="round"/>
<path d="M144.571 44.3431L132.879 43.9277L122.285 147.928L141.387 145.129L144.571 44.3431Z" fill="var(--pageBackground, #f8f8f8)" stroke="var(--buttonPrimary)" stroke-width="1.71429" stroke-miterlimit="10"/>
<path d="M130.26 42.2148L60 47L76.8324 143.609L137.142 154.786L130.26 42.2148Z" fill="var(--pageBackground, #f8f8f8)" stroke="var(--buttonPrimary)" stroke-width="1.71429" stroke-miterlimit="10" stroke-linejoin="round"/>
<path d="M74.6207 49.3565L70.7964 47.3555L67.4277 148.374L75.4277 167.927L74.6207 49.3565Z" fill="var(--buttonPrimary)" stroke="var(--buttonPrimary)" stroke-width="1.71429" stroke-miterlimit="10" stroke-linejoin="round"/>
<path d="M70.858 47.0323L59.7016 46.2148L48.5723 150.786L68.3343 147.982L70.858 47.0323Z" fill="var(--pageBackground, #f8f8f8)" stroke="var(--buttonPrimary)" stroke-width="1.71429" stroke-miterlimit="10" stroke-linejoin="round"/>
<path d="M75 168L48.5723 150.895L68.5026 147.356L75 168Z" fill="var(--pageBackground, #f8f8f8)" stroke="var(--buttonPrimary)" stroke-width="1.71429" stroke-miterlimit="10" stroke-linejoin="round"/>
<path d="M74.2852 49.3066L75 168L151.428 157.51L144.597 44.5L74.2876 49.3091L74.2852 49.3066ZM120.84 52.6688C120.84 51.643 121.672 50.813 122.701 50.813C123.729 50.813 124.561 51.643 124.561 52.6688C124.561 53.6945 123.727 54.5245 122.701 54.5245C121.675 54.5245 120.84 53.6945 120.84 52.6688ZM95.6425 55.2009C95.6425 54.1752 96.4747 53.3452 97.503 53.3452C98.5314 53.3452 99.3635 54.1752 99.3635 55.2009C99.3635 56.2267 98.5314 57.0567 97.503 57.0567C96.4747 57.0567 95.6425 56.2267 95.6425 55.2009Z" fill="var(--pageBackground, #f8f8f8)" stroke="var(--buttonPrimary)" stroke-width="1.71429" stroke-miterlimit="10" stroke-linejoin="round"/>
<path d="M97.3769 31.5978C97.9546 28.0607 98.999 24.4542 101.271 21.6206C103.404 18.9554 106.725 17.93 110.041 18.2817C117.302 19.0545 120.43 26.3565 121.85 32.6455C122.657 36.2272 123.047 39.903 123.339 43.5589C123.556 46.2737 123.64 49.4095 123.988 51.8939C124.186 53.3132 122.025 53.9225 121.828 52.4908C120.924 46.0012 121.092 39.4522 119.64 33.022C118.27 26.946 114.914 19.4533 107.421 20.5283C101.189 21.4224 99.7842 29.4676 99.2138 34.5627C98.4608 41.3074 98.9546 48.0769 98.962 54.8414C98.962 56.2929 96.7201 56.2905 96.7201 54.8414C96.7102 47.0762 96.1177 39.3035 97.3769 31.5928V31.5978Z" fill="var(--buttonPrimary)"/>
<path d="M84.5723 85.1205C85.4901 85.6859 89.1864 87.821 94.2732 87.2647C99.6436 86.6769 102.753 83.5079 103.429 82.7849" stroke="var(--buttonPrimary)" stroke-width="1.71429" stroke-miterlimit="10"/>
<path d="M118.285 80.2701C119.231 80.9061 123.039 83.3082 128.28 82.6823C133.813 82.021 137.017 78.4559 137.714 77.6426" stroke="var(--buttonPrimary)" stroke-width="1.71429" stroke-miterlimit="10"/>
<path d="M114.287 101.071C115.233 101.071 116.001 100.304 116.001 99.3571C116.001 98.4104 115.233 97.6428 114.287 97.6428C113.34 97.6428 112.572 98.4104 112.572 99.3571C112.572 100.304 113.34 101.071 114.287 101.071Z" fill="var(--buttonPrimary)"/>
<path d="M151.155 96.5C147.707 96.5 144.338 97.5348 141.469 99.481C138.601 101.427 136.366 104.192 135.046 107.429C133.726 110.667 133.379 114.227 134.05 117.664C134.722 121.101 136.381 124.258 138.819 126.735C141.256 129.213 144.36 130.902 147.741 131.587C151.123 132.272 154.628 131.922 157.813 130.58C160.999 129.241 163.721 126.97 165.636 124.057C167.551 121.144 168.574 117.717 168.574 114.215C168.574 109.519 166.738 105.015 163.474 101.692C160.206 98.3707 155.777 96.5025 151.155 96.5Z" fill="var(--pageBackground, #f8f8f8)" stroke="var(--buttonPrimary)" stroke-width="1.71429" stroke-miterlimit="10"/>
<path d="M157.144 114.023C157.144 120.037 154.806 123.357 150.703 123.357C147.082 123.357 144.632 120.118 144.572 114.269C144.572 108.337 147.253 105.071 151.015 105.071C154.777 105.071 157.144 108.392 157.144 114.023ZM147.082 114.296C147.082 118.893 148.565 121.507 150.844 121.507C153.408 121.507 154.634 118.65 154.634 114.132C154.634 109.614 153.468 106.921 150.872 106.921C148.68 106.921 147.082 109.478 147.082 114.296Z" fill="var(--buttonPrimary)"/>
</svg>