<svg xmlns="http://www.w3.org/2000/svg" width="14" height="14" viewBox="0 0 14 14" fill="none">
  <path d="M0 2.63623V8.46179L3.5 11.3785V5.5529L0 2.63623Z" fill="#4F5ECC"/>
  <path d="M6.99219 8.46183L3.49219 5.54517V11.3707L6.99219 8.45405V8.46183Z" fill="#6678DD"/>
  <path d="M2.87 0.256283C3.09556 0.0696159 3.31333 0.0229492 3.50778 0.0229492V5.54517L0 2.63628L2.87 0.256283Z" fill="#6678DD"/>
  <path d="M4.13778 0.256283C3.91222 0.0696159 3.68667 0.0229492 3.5 0.0229492V5.54517L7.00778 2.63628L4.13778 0.256283Z" fill="#8096E5"/>
  <path d="M14 2.63623L10.5 5.5529V11.3785L14 8.46179V2.63623Z" fill="#2EB589"/>
  <path d="M7.00781 8.46183L10.5078 5.54517V11.3707L7.00781 8.45405V8.46183Z" fill="#36CC9B"/>
  <path d="M10.5 11.3708L6.99997 8.4541H6.99219L3.49219 11.3708L6.36219 13.7508C6.58774 13.9297 6.80552 13.9841 6.99219 13.9763C7.18663 13.9763 7.40441 13.9297 7.62219 13.7508L10.4922 11.3708H10.5Z" fill="#3751AF"/>
  <path d="M11.1378 0.256283C10.9122 0.0696159 10.6944 0.0229492 10.5 0.0229492V5.54517L14 2.6285L11.1378 0.256283Z" fill="#36CC9B"/>
  <path d="M9.86222 0.256283C10.0878 0.0696159 10.3133 0.0229492 10.5 0.0229492V5.54517L7 2.63628L9.86222 0.256283Z" fill="#63E0B3"/>
</svg>