<svg xmlns="http://www.w3.org/2000/svg" width="16" height="16" viewBox="0 0 16 16" fill="none">
<mask id="mask0_28693_84856" style="mask-type:alpha" maskUnits="userSpaceOnUse" x="0" y="0" width="16" height="16">
<rect width="16" height="16" fill="#D9D9D9"/>
</mask>
<g mask="url(#mask0_28693_84856)">
<path d="M8.00143 7.91049C8.3331 7.91049 8.61665 7.79238 8.85209 7.55616C9.08765 7.31994 9.20543 7.03599 9.20543 6.70433C9.20543 6.37266 9.08732 6.08905 8.85109 5.85349C8.61487 5.61805 8.33087 5.50033 7.99909 5.50033C7.66743 5.50033 7.38387 5.61844 7.14843 5.85466C6.91287 6.09088 6.7951 6.37488 6.7951 6.70666C6.7951 7.03833 6.91321 7.32188 7.14943 7.55733C7.38565 7.79277 7.66965 7.91049 8.00143 7.91049ZM8.00026 13.0093C9.30448 11.8418 10.3025 10.7219 10.9944 9.64966C11.6863 8.57744 12.0323 7.63833 12.0323 6.83233C12.0323 5.61699 11.6462 4.61788 10.8739 3.83499C10.1017 3.0521 9.14382 2.66066 8.00026 2.66066C6.85671 2.66066 5.89882 3.0521 5.1266 3.83499C4.35437 4.61788 3.96826 5.61699 3.96826 6.83233C3.96826 7.63833 4.31421 8.57744 5.0061 9.64966C5.69798 10.7219 6.69604 11.8418 8.00026 13.0093ZM8.00026 14.34C6.32248 12.8862 5.06437 11.5333 4.22593 10.2812C3.38748 9.02894 2.96826 7.87933 2.96826 6.83233C2.96826 5.29388 3.46587 4.04838 4.4611 3.09583C5.45643 2.14327 6.63615 1.66699 8.00026 1.66699C9.36437 1.66699 10.5441 2.14327 11.5394 3.09583C12.5347 4.04838 13.0323 5.29388 13.0323 6.83233C13.0323 7.87933 12.613 9.02894 11.7746 10.2812C10.9362 11.5333 9.67804 12.8862 8.00026 14.34Z" fill="currentColor"/>
</g>
</svg>