<svg width="24" height="24" viewBox="0 0 24 24" fill="none" xmlns="http://www.w3.org/2000/svg">
<g id="location_on">
<mask id="mask0_21978_116521" style="mask-type:alpha" maskUnits="userSpaceOnUse" x="0" y="0" width="24" height="24">
<rect id="Bounding box" width="24" height="24" fill="#D9D9D9"/>
</mask>
<g mask="url(#mask0_21978_116521)">
<path id="location_on_2" d="M12.0011 19.5135C13.9575 17.7622 15.4545 16.0823 16.4924 14.474C17.5302 12.8657 18.0491 11.457 18.0491 10.248C18.0491 8.425 17.47 6.92633 16.3116 5.752C15.1533 4.57767 13.7165 3.9905 12.0011 3.9905C10.2858 3.9905 8.84896 4.57767 7.69062 5.752C6.53229 6.92633 5.95312 8.425 5.95312 10.248C5.95312 11.457 6.47204 12.8657 7.50988 14.474C8.54771 16.0823 10.0448 17.7622 12.0011 19.5135ZM12.0011 20.9403C11.8063 20.9403 11.6115 20.9067 11.4166 20.8395C11.2216 20.7722 11.0453 20.668 10.8876 20.527C9.99029 19.7 9.15054 18.8483 8.36838 17.972C7.58637 17.0958 6.90662 16.2199 6.32912 15.3443C5.75146 14.4686 5.29438 13.6007 4.95788 12.7405C4.62138 11.8802 4.45312 11.0493 4.45312 10.248C4.45312 7.94033 5.19954 6.07208 6.69237 4.64325C8.18537 3.21442 9.95496 2.5 12.0011 2.5C14.0473 2.5 15.8169 3.21442 17.3099 4.64325C18.8027 6.07208 19.5491 7.94033 19.5491 10.248C19.5491 11.0493 19.3809 11.8785 19.0444 12.7355C18.7079 13.5927 18.2525 14.4607 17.6781 15.3395C17.1036 16.2183 16.4254 17.0942 15.6434 17.9672C14.8614 18.8404 14.0216 19.6904 13.1241 20.5173C12.9688 20.6583 12.7922 20.764 12.5944 20.8345C12.3967 20.905 12.199 20.9403 12.0011 20.9403ZM12.0029 11.8652C12.5004 11.8652 12.9257 11.6881 13.2789 11.3338C13.6322 10.9794 13.8089 10.5535 13.8089 10.056C13.8089 9.5585 13.6317 9.13308 13.2774 8.77975C12.923 8.42658 12.497 8.25 11.9994 8.25C11.5019 8.25 11.0765 8.42717 10.7234 8.7815C10.37 9.13583 10.1934 9.56183 10.1934 10.0595C10.1934 10.557 10.3705 10.9823 10.7249 11.3355C11.0792 11.6887 11.5052 11.8652 12.0029 11.8652Z" fill="#1C1B1F"/>
</g>
</g>
</svg>