<svg width="24" height="24" viewBox="0 0 24 24" fill="none"
    xmlns="http://www.w3.org/2000/svg">
    <path d="M2 19.0001V17.4751H22V19.0001H2ZM2.95 12.6501L1.95 12.1001L2.95 10.4001H1V9.2751H2.95L1.95 7.5751L2.95 7.0251L3.9 8.7001L4.85 7.0251L5.85 7.5751L4.85 9.2751H6.8V10.4001H4.85L5.85 12.1001L4.85 12.6501L3.9 10.9751L2.95 12.6501ZM11.05 12.6501L10.05 12.0501L11.05 10.3501H9.1V9.2251H11.05L10.05 7.5251L11.05 6.9751L12 8.6501L12.95 6.9751L13.95 7.5251L12.95 9.2251H14.9V10.3501H12.95L13.95 12.0501L12.95 12.6501L12 10.9751L11.05 12.6501ZM19.15 12.6501L18.15 12.0501L19.15 10.3501H17.2V9.2251H19.15L18.15 7.5251L19.15 6.9751L20.1 8.6501L21.05 6.9751L22.05 7.5251L21.05 9.2251H23V10.3501H21.05L22.05 12.0501L21.05 12.6501L20.1 10.9751L19.15 12.6501Z" fill="#000"/>
</svg>
