<svg  viewBox="0 0 40 40" fill="none" xmlns="http://www.w3.org/2000/svg">
<path d="M20.0003 37.273C29.5397 37.273 37.273 29.5397 37.273 20.0003C37.273 10.4608 29.5397 2.72754 20.0003 2.72754C10.4608 2.72754 2.72754 10.4608 2.72754 20.0003C2.72754 29.5397 10.4608 37.273 20.0003 37.273Z" fill="white"/>
<path d="M20.0145 2.72754C10.4675 2.72754 2.72754 10.4548 2.72754 19.9861C2.72754 27.3014 7.28047 33.5514 13.7115 36.0656C13.555 34.702 13.4269 32.5997 13.7684 31.1082C14.0814 29.7588 15.7888 22.5287 15.7888 22.5287C15.7888 22.5287 15.2766 21.4917 15.2766 19.9719C15.2766 17.5713 16.6709 15.7815 18.4067 15.7815C19.8864 15.7815 20.5978 16.8895 20.5978 18.2105C20.5978 19.6878 19.6588 21.9037 19.1608 23.9633C18.7482 25.6821 20.0287 27.0883 21.7218 27.0883C24.795 27.0883 27.1569 23.8497 27.1569 19.1906C27.1569 15.0571 24.1832 12.1736 19.9291 12.1736C15.0062 12.1736 12.118 15.8525 12.118 19.6594C12.118 21.1366 12.6871 22.7275 13.3985 23.594C13.5408 23.7645 13.555 23.9207 13.5123 24.0912C13.3842 24.6309 13.0855 25.8099 13.0285 26.0514C12.9574 26.3639 12.7724 26.4349 12.4452 26.2787C10.2826 25.2702 8.93091 22.1309 8.93091 19.5883C8.93091 14.148 12.8863 9.14799 20.3559 9.14799C26.3459 9.14799 31.0126 13.4094 31.0126 19.1196C31.0126 25.0713 27.2565 29.8582 22.049 29.8582C20.299 29.8582 18.6486 28.9491 18.0937 27.8696C18.0937 27.8696 17.2258 31.165 17.0124 31.9747C16.6282 33.4804 15.5753 35.3554 14.864 36.506C16.4859 37.0031 18.1933 37.273 19.986 37.273C29.5329 37.273 37.2729 29.5457 37.2729 20.0145C37.3014 10.4548 29.5614 2.72754 20.0145 2.72754Z" fill="#E60023"/>
</svg>
