<svg width="25" height="24" viewBox="0 0 25 24" fill="none" xmlns="http://www.w3.org/2000/svg">
<g id="sync_16dp_5F6368_FILL0_wght400_GRAD0_opsz20 1">
<path id="Vector" d="M7.0998 12.0008C7.0998 12.8008 7.2623 13.5424 7.5873 14.2258C7.9123 14.9091 8.3498 15.4924 8.8998 15.9758V15.3008C8.8998 15.0458 8.98555 14.832 9.15705 14.6595C9.32855 14.487 9.54105 14.4008 9.79455 14.4008C10.0481 14.4008 10.2623 14.487 10.4373 14.6595C10.6123 14.832 10.6998 15.0458 10.6998 15.3008V18.3008C10.6998 18.5558 10.6136 18.7695 10.4411 18.942C10.2686 19.1145 10.0548 19.2008 9.7998 19.2008H6.7998C6.5448 19.2008 6.33105 19.115 6.15855 18.9435C5.98605 18.772 5.8998 18.5595 5.8998 18.306C5.8998 18.0525 5.98605 17.8383 6.15855 17.6633C6.33105 17.4883 6.5448 17.4008 6.7998 17.4008H7.7498C6.9998 16.7341 6.40397 15.9383 5.9623 15.0133C5.52064 14.0883 5.2998 13.0841 5.2998 12.0008C5.2998 10.5841 5.66647 9.30495 6.3998 8.16328C7.13314 7.02161 8.10372 6.15795 9.31155 5.57228C9.52039 5.45795 9.73314 5.4537 9.9498 5.55953C10.1665 5.6652 10.3165 5.83895 10.3998 6.08078C10.4831 6.30745 10.479 6.53412 10.3873 6.76078C10.2956 6.98745 10.1456 7.1592 9.93705 7.27603C9.07322 7.74303 8.38439 8.38895 7.87055 9.21378C7.35672 10.0384 7.0998 10.9674 7.0998 12.0008ZM17.8998 12.0008C17.8998 11.2008 17.7373 10.4591 17.4123 9.77578C17.0873 9.09245 16.6498 8.50911 16.0998 8.02578V8.70078C16.0998 8.95578 16.0141 9.16953 15.8426 9.34203C15.6711 9.51453 15.4586 9.60078 15.2051 9.60078C14.9516 9.60078 14.7373 9.51453 14.5623 9.34203C14.3873 9.16953 14.2998 8.95578 14.2998 8.70078V5.70078C14.2998 5.44578 14.3861 5.23203 14.5586 5.05953C14.7311 4.88703 14.9448 4.80078 15.1998 4.80078H18.1998C18.4548 4.80078 18.6686 4.88653 18.8411 5.05803C19.0136 5.22953 19.0998 5.44203 19.0998 5.69553C19.0998 5.94903 19.0136 6.16328 18.8411 6.33828C18.6686 6.51328 18.4548 6.60078 18.1998 6.60078H17.2498C17.9998 7.26745 18.5956 8.06328 19.0373 8.98828C19.479 9.91328 19.6998 10.9174 19.6998 12.0008C19.6998 13.4174 19.3331 14.6966 18.5998 15.8383C17.8665 16.9799 16.8959 17.8436 15.6881 18.4293C15.4792 18.5436 15.2665 18.5466 15.0498 18.4383C14.8331 18.3299 14.6831 18.1554 14.5998 17.9145C14.5165 17.6887 14.5123 17.4674 14.5873 17.2508C14.6623 17.0341 14.8081 16.8674 15.0248 16.7508C15.8748 16.3008 16.5665 15.6591 17.0998 14.8258C17.6331 13.9924 17.8998 13.0508 17.8998 12.0008Z" fill="currentColor"/>
</g>
</svg>
