<svg width="32" height="28" viewBox="0 0 32 28" fill="none" xmlns="http://www.w3.org/2000/svg">
<g id="emptystate-hyperlin [Recovered]_Delivery man avatar" clip-path="url(#clip0_25996_158119)">
<path id="Vector" d="M18.0527 12.984C18.0527 12.5705 18.0075 10.8633 18.0075 10.8633L16.0521 10.8646L14.0967 10.8633C14.0967 10.8633 14.0515 12.5709 14.0515 12.984C14.0515 13.397 13.9287 13.914 13.9287 13.914H18.1759C18.1759 13.914 18.0532 13.3975 18.0532 12.984H18.0527Z" fill="white" stroke="currentColor" stroke-width="0.134391" stroke-miterlimit="10"/>
<path id="Vector_2" d="M24.2173 15.4787C25.2019 15.8921 25.4111 17.4161 25.5303 18.3717L25.8685 21.5375L26.2878 26.8737C26.3631 27.8333 26.3877 28.796 26.3617 29.7577L25.563 39.3282C25.563 39.3282 25.1303 39.7103 23.1574 39.0711L22.993 28.511L22.3887 21.537C22.3887 17.4623 22.9451 15.0741 22.9464 15.0625L24.2177 15.4782L24.2173 15.4787Z" fill="white" stroke="currentColor" stroke-width="0.134391" stroke-miterlimit="10"/>
<path id="Vector_3" d="M7.88247 15.4787C6.89783 15.8921 6.68862 17.4161 6.56946 18.3717L6.23125 21.5375L5.81194 26.8737C5.73669 27.8333 5.71205 28.796 5.73803 29.7577L6.53676 39.3282C6.53676 39.3282 6.9695 39.7103 8.94237 39.0711L9.10677 28.511L9.71109 21.537C9.71109 17.4623 9.15471 15.0741 9.15336 15.0625L7.88202 15.4782L7.88247 15.4787Z" fill="white" stroke="currentColor" stroke-width="0.134391" stroke-miterlimit="10"/>
<path id="Vector_4" d="M24.1998 15.2818L18.8436 13.5307L18.8319 13.5502L18.8118 13.525L18.8067 13.5187C18.6271 13.3141 18.4686 13.2018 18.3557 13.1407C18.2992 13.1102 18.2541 13.0924 18.2235 13.0823C18.2081 13.0773 18.1964 13.0741 18.1886 13.0723L18.1801 13.0704L16.0501 13.6469L16.0374 13.6503L16.0383 13.6469L13.9181 13.071L13.9101 13.0727C13.9024 13.0746 13.8906 13.0777 13.8753 13.0828C13.8446 13.0928 13.7995 13.1106 13.743 13.1412C13.6301 13.2023 13.4716 13.3146 13.2919 13.5193C13.2918 13.5194 13.2918 13.5195 13.2917 13.5196L24.1998 15.2818ZM24.1998 15.2818C24.2644 15.309 24.3248 15.3418 24.3829 15.3783L24.3831 15.3785C24.7992 15.6334 25.0931 16.1038 25.297 16.6246C25.5006 17.1447 25.6131 17.712 25.6686 18.1568C25.6686 18.1569 25.6686 18.1569 25.6686 18.157L26.005 21.5239L26.0042 21.524L26.0063 21.5296L26.0115 21.5434L26.3691 25.0465M24.1998 15.2818L26.3691 25.0465M26.3691 25.0465L22.3019 25.4657L22.2839 25.4676L22.2819 25.4855L22.3042 25.488L22.2819 25.4855L22.2819 25.4856L22.2819 25.4857L22.2818 25.4864L22.2815 25.489L22.2804 25.4991L22.2762 25.5381C22.2726 25.5721 22.2675 25.6214 22.2615 25.6831C22.2494 25.8064 22.2335 25.9788 22.2184 26.1753C22.1889 26.5586 22.1623 27.0343 22.1725 27.4164L22.1711 27.4165C22.1416 28.1031 22.1263 28.7921 22.138 29.4852L22.1608 30.8587C22.1652 31.1245 22.1128 31.3646 21.9994 31.5399C21.8866 31.7141 21.713 31.8256 21.47 31.8353H10.6287C10.3858 31.8256 10.2121 31.7141 10.0993 31.5399C9.98591 31.3646 9.93348 31.1245 9.93791 30.8587L9.96076 29.4852C9.97197 28.8097 9.95718 28.1383 9.92896 27.4698V27.4698V27.4698V27.4698V27.4698V27.4697V27.4697V27.4697V27.4697V27.4697V27.4697V27.4697V27.4696V27.4696V27.4696V27.4696V27.4696V27.4696V27.4695V27.4695V27.4695V27.4695V27.4695V27.4695V27.4695V27.4694V27.4694V27.4694V27.4694V27.4694V27.4694V27.4694V27.4693V27.4693V27.4693V27.4693V27.4693V27.4693V27.4693V27.4692V27.4692V27.4692V27.4692V27.4692V27.4692V27.4691V27.4691V27.4691V27.4691V27.4691V27.4691V27.4691V27.469V27.469V27.469V27.469V27.469V27.469V27.4689V27.4689V27.4689V27.4689V27.4689V27.4689V27.4689V27.4688V27.4688V27.4688V27.4688V27.4688V27.4688V27.4687V27.4687V27.4687V27.4687V27.4687V27.4687V27.4687V27.4686V27.4686V27.4686V27.4686V27.4686V27.4686V27.4685V27.4685V27.4685V27.4685V27.4685V27.4685V27.4684V27.4684V27.4684V27.4684V27.4684V27.4684V27.4684V27.4683V27.4683V27.4683V27.4683V27.4683V27.4683V27.4682V27.4682V27.4682V27.4682V27.4682V27.4682V27.4681V27.4681V27.4681V27.4681V27.4681V27.4681V27.468V27.468V27.468V27.468V27.468V27.468V27.468V27.4679V27.4679V27.4679V27.4679V27.4679V27.4679V27.4678V27.4678V27.4678V27.4678V27.4678V27.4678V27.4677V27.4677V27.4677V27.4677V27.4677V27.4677V27.4676V27.4676V27.4676V27.4676V27.4676V27.4676V27.4675V27.4675V27.4675V27.4675V27.4675V27.4675V27.4674V27.4674V27.4674V27.4674V27.4674V27.4674V27.4673V27.4673V27.4673V27.4673V27.4673V27.4673V27.4672V27.4672V27.4672V27.4672V27.4672V27.4672V27.4671V27.4671V27.4671V27.4671V27.4671V27.4671V27.467V27.467V27.467V27.467V27.467V27.467V27.467V27.4669V27.4669V27.4669V27.4669V27.4669V27.4669V27.4668V27.4668V27.4668V27.4668V27.4668V27.4668V27.4667V27.4667V27.4667V27.4667V27.4667V27.4667V27.4666V27.4666V27.4666V27.4666V27.4666V27.4666V27.4665V27.4665V27.4665V27.4665V27.4665V27.4665V27.4664V27.4664V27.4664V27.4664V27.4664V27.4664V27.4663V27.4663V27.4663V27.4663V27.4663V27.4663V27.4662V27.4662V27.4662V27.4662V27.4662V27.4662V27.4661V27.4661V27.4661V27.4661V27.4661V27.4661V27.466V27.466V27.466V27.466V27.466V27.466V27.4659V27.4659V27.4659V27.4659V27.4659V27.4659V27.4659V27.4658V27.4658V27.4658V27.4658V27.4658V27.4658V27.4657V27.4657V27.4657V27.4657V27.4657V27.4657V27.4656V27.4656V27.4656V27.4656V27.4656V27.4656V27.4655V27.4655V27.4655V27.4655V27.4655V27.4655V27.4655V27.4654V27.4654V27.4654V27.4654V27.4654V27.4654V27.4653V27.4653V27.4653V27.4653V27.4653V27.4653V27.4652V27.4652V27.4652V27.4652V27.4652V27.4652V27.4651V27.4651V27.4651V27.4651V27.4651V27.4651V27.4651V27.465V27.465V27.465V27.465V27.465V27.465V27.4649V27.4649V27.4649V27.4649V27.4649V27.4649V27.4649V27.4648V27.4648V27.4648V27.4648V27.4648V27.4648V27.4647V27.4647V27.4647V27.4647V27.4647V27.4647V27.4647V27.4646V27.4646V27.4646V27.4646V27.4646V27.4646V27.4646V27.4645V27.4645V27.4645V27.4645V27.4645V27.4645V27.4644V27.4644V27.4644V27.4644V27.4644V27.4644V27.4644V27.4643V27.4643V27.4643V27.4643V27.4643V27.4643V27.4643V27.4642V27.4642V27.4642V27.4642V27.4642V27.4642V27.4642V27.4641V27.4641V27.4641V27.4641V27.4641V27.4641V27.4641V27.464V27.464V27.464V27.464V27.464V27.464V27.464V27.4639V27.4639V27.4639V27.4639V27.4639V27.4639V27.4639V27.4638V27.4638V27.4638V27.4638V27.4638V27.4638V27.4638V27.4637V27.4637V27.4637V27.4637V27.4637V27.4637V27.4637V27.4637V27.4636V27.4636V27.4636V27.4636V27.4636V27.4636V27.4636V27.4635V27.4635V27.4635V27.4635V27.4635V27.4635V27.4635V27.4635V27.4634V27.4634V27.4634V27.4634V27.4634V27.4634V27.4634V27.4634V27.4633V27.4633V27.4633V27.4633V27.4633V27.4633V27.4633V27.4633V27.4632V27.4632V27.4632V27.4632V27.4632V27.4632V27.4632V27.4632V27.4631V27.4631V27.4631V27.4631V27.4631V27.4631V27.4631C9.94264 27.0766 9.91557 26.5822 9.88516 26.1849C9.86994 25.9861 9.85387 25.8114 9.8416 25.6864C9.83547 25.6239 9.83028 25.5738 9.82663 25.5393L9.82238 25.4997L9.82125 25.4895L9.82096 25.4869L9.82088 25.4862L9.82086 25.486L9.82086 25.486L9.7986 25.4885L9.82086 25.486L9.81884 25.468L9.8009 25.4662L5.72915 25.046L6.08704 21.5405L6.08705 21.5405L6.4252 18.157C6.42521 18.157 6.42523 18.1569 6.42524 18.1568C6.48469 17.68 6.60964 17.0623 6.84201 16.5129C7.07455 15.9631 7.4129 15.4856 7.89673 15.2823L13.2523 13.5313L26.3691 25.0465Z" fill="currentColor" stroke="currentColor" stroke-width="0.0447971"/>
<path id="Vector_5" d="M18.7483 6.74183L19.1712 6.51561C19.4373 6.3736 19.7589 6.50799 19.8884 6.81485C20.0864 7.28433 20.068 7.82996 19.8391 8.26942L19.655 8.62286C19.4691 8.9799 19.1045 9.16177 18.7421 9.07845L18.6646 9.06053L18.7479 6.74139L18.7483 6.74183Z" fill="white" stroke="currentColor" stroke-width="0.134391" stroke-miterlimit="10"/>
<path id="Vector_6" d="M13.3517 6.74183L12.9289 6.51561C12.6628 6.3736 12.3411 6.50799 12.2117 6.81485C12.0137 7.28433 12.032 7.82996 12.2609 8.26942L12.445 8.62286C12.631 8.9799 12.9956 9.16177 13.358 9.07845L13.4355 9.06053L13.3522 6.74139L13.3517 6.74183Z" fill="white" stroke="currentColor" stroke-width="0.134391" stroke-miterlimit="10"/>
<path id="Vector_7" d="M16.0502 2.75L12.6255 4.76811C12.6255 4.76811 13.09 8.15791 13.2674 9.242C13.4448 10.3265 14.4236 11.3242 14.7811 11.5894C15.1391 11.8546 16.0498 11.8362 16.0498 11.8362C16.0498 11.8362 16.961 11.855 17.3184 11.5894C17.6764 11.3242 18.6547 10.3265 18.8321 9.242C19.0095 8.15746 19.4741 4.76811 19.4741 4.76811L16.0493 2.75H16.0502Z" fill="white" stroke="currentColor" stroke-width="0.134391" stroke-miterlimit="10"/>
<path id="Vector_8" d="M19.5285 6.46053C19.4308 6.43366 19.3269 6.43434 19.2268 6.47088L19.2142 6.47548L19.2123 6.48878L19.1216 7.12853C18.9569 6.91436 18.855 6.74703 18.7863 6.55271C18.713 6.34551 18.6768 6.10624 18.6444 5.7445C18.6039 5.29221 18.507 4.98801 18.4196 4.7963C18.3759 4.70046 18.3347 4.63281 18.3041 4.58887C18.2888 4.56691 18.2762 4.55088 18.2673 4.54024C18.2628 4.53491 18.2593 4.53094 18.2568 4.52823L18.2539 4.52513L18.2538 4.52501L18.252 4.52274C18.2503 4.52062 18.2477 4.51766 18.2443 4.51393C18.2375 4.50648 18.2271 4.49597 18.2123 4.48309C18.1828 4.45732 18.1359 4.42205 18.0653 4.38258C17.9241 4.30366 17.6882 4.20799 17.3069 4.13776C16.9944 4.08013 16.5867 4.03928 16.0494 4.03928C15.1248 4.03928 14.5752 4.15887 14.2559 4.27949C14.0961 4.33982 13.994 4.40045 13.9313 4.44656C13.9 4.46961 13.8785 4.48902 13.8648 4.50293C13.8579 4.50988 13.8529 4.51545 13.8496 4.51941L13.8457 4.5241L13.8453 4.52464L13.8453 4.52468L13.8424 4.52778C13.8399 4.53049 13.8364 4.53446 13.832 4.53979C13.8231 4.55044 13.8104 4.56646 13.7951 4.58843C13.7646 4.63236 13.7233 4.70001 13.6796 4.79585C13.5922 4.98756 13.4953 5.29176 13.4548 5.74405C13.4224 6.10579 13.3862 6.34506 13.3129 6.55226C13.2442 6.74659 13.1423 6.91392 12.9776 7.12809C12.9469 6.91219 12.9164 6.69681 12.8869 6.48834L12.8851 6.47504L12.8724 6.47043C12.7724 6.43394 12.6682 6.43281 12.5707 6.45996L12.441 4.54035C12.4263 4.07343 12.5147 3.69683 12.6886 3.3603C12.8627 3.02329 13.1232 2.72531 13.4548 2.41654L13.4548 2.41654C14.0201 1.88992 14.7538 1.60052 15.4993 1.60052H16.4673C17.1103 1.60052 17.4549 1.73191 17.6381 1.86032C17.7296 1.9245 17.7813 1.98819 17.8099 2.03506C17.8242 2.05852 17.8328 2.07787 17.8378 2.09107C17.8403 2.09768 17.8419 2.10275 17.8428 2.10604L17.8438 2.1096L17.844 2.11029L17.844 2.11031L17.844 2.11033L17.844 2.11037L17.844 2.1104L17.8472 2.12647L17.8637 2.12812C18.293 2.17136 18.6418 2.41525 18.8927 2.66173V2.66221L18.8988 2.66869C19.4014 3.19707 19.6835 3.73571 19.6583 4.5408L19.5285 6.46053Z" fill="currentColor" stroke="currentColor" stroke-width="0.0447971"/>
<path id="Vector_9" d="M16.0502 3.50879C14.8214 3.50879 14.3452 3.97871 13.8735 4.52703C13.9385 4.45535 14.3721 4.06159 16.0502 4.06159C16.5864 4.06159 17.2436 4.157 17.5545 4.21434C17.5545 4.21434 17.2884 3.50879 16.0502 3.50879Z" fill="currentColor"/>
<path id="Vector_10" d="M18.0291 12.3211C18.0291 12.3211 17.6743 13.2735 16.0459 13.6242C16.0459 13.6242 16.3635 13.6103 16.691 14.3401C16.9862 14.9982 17.3365 15.6589 17.3365 15.6589C17.3365 15.6589 18.809 14.1712 18.891 13.5145C18.891 13.5145 18.279 11.8005 18.0183 11.8355L18.0291 12.3211Z" fill="white" stroke="currentColor" stroke-width="0.134391" stroke-miterlimit="10"/>
<path id="Vector_11" d="M14.0631 12.3211C14.0631 12.3211 14.4179 13.2735 16.0462 13.6242C16.0462 13.6242 15.7286 13.6103 15.4012 14.3401C15.1059 14.9982 14.7556 15.6589 14.7556 15.6589C14.7556 15.6589 13.2832 14.1712 13.2012 13.5145C13.2012 13.5145 13.8131 11.8005 14.0738 11.8355L14.0631 12.3211Z" fill="white" stroke="currentColor" stroke-width="0.134391" stroke-miterlimit="10"/>
<path id="Vector_12" d="M14.3711 18.835H10.4639V19.9948H14.3711V18.835Z" fill="white" stroke="currentColor" stroke-width="0.134391" stroke-miterlimit="10"/>
<path id="Vector_13" d="M9.7201 21.1057C10.0798 23.9978 9.9069 27.4619 9.9069 27.4619C9.9069 27.4619 9.66052 20.0139 8.37305 17.293C8.37305 17.293 9.35724 18.1903 9.7201 21.1057Z" fill="white" stroke="currentColor" stroke-width="0.134391" stroke-miterlimit="10"/>
<path id="Vector_14" d="M22.3792 21.1057C22.0195 23.9978 22.1924 27.4619 22.1924 27.4619C22.1924 27.4619 22.4388 20.0139 23.7263 17.293C23.7263 17.293 22.7421 18.1903 22.3792 21.1057Z" fill="white" stroke="currentColor" stroke-width="0.134391" stroke-miterlimit="10"/>
<path id="Vector_15" d="M19.6813 4.88285C19.6805 4.89417 19.6798 4.90348 19.6793 4.91067L16.3536 5.32309H15.7306L12.4049 4.91067C12.4044 4.90348 12.4037 4.89417 12.4029 4.88285C12.4009 4.85291 12.3985 4.80889 12.3969 4.7528C12.3936 4.64063 12.3934 4.48024 12.4059 4.28773C12.4308 3.90257 12.5062 3.38953 12.708 2.87686C12.9098 2.3643 13.2375 1.8527 13.7669 1.46916C14.2962 1.08572 15.0286 0.829039 16.0419 0.829039H16.0423C17.0556 0.829039 17.788 1.08572 18.3173 1.46916C18.8466 1.8527 19.1744 2.3643 19.3762 2.87686C19.578 3.38953 19.6534 3.90257 19.6783 4.28773C19.6908 4.48024 19.6906 4.64063 19.6873 4.7528C19.6857 4.80889 19.6833 4.85291 19.6813 4.88285Z" fill="currentColor" stroke="currentColor" stroke-width="0.0447971"/>
<path id="Vector_16" d="M12.3841 4.93055L12.4728 5.2607C12.5722 6.04196 13.0309 6.27849 13.7262 6.27849H18.3569C19.0526 6.27849 19.5108 6.04196 19.6103 5.2607L19.699 4.93055C19.8513 4.68461 12.2309 4.68461 12.3836 4.93055H12.3841Z" fill="white" stroke="currentColor" stroke-width="0.134391" stroke-miterlimit="10"/>
</g>
<defs>
<clipPath id="clip0_25996_158119">
<rect width="31.9" height="31.9" fill="white" transform="translate(0.100098)"/>
</clipPath>
</defs>
</svg>
