<svg xmlns="http://www.w3.org/2000/svg" width="40" height="40" viewBox="0 0 40 40" fill="none">
  <mask id="mask0_28189_195296" style="mask-type:alpha" maskUnits="userSpaceOnUse" x="8" y="8" width="24" height="24">
    <rect x="8" y="8" width="24" height="24" fill="#D9D9D9"/>
  </mask>
  <g mask="url(#mask0_28189_195296)">
    <path d="M25 30C24.1667 30 23.4583 29.7083 22.875 29.125C22.2917 28.5417 22 27.8333 22 27C22 26.9 22.025 26.6667 22.075 26.3L15.05 22.2C14.7833 22.45 14.475 22.6458 14.125 22.7875C13.775 22.9292 13.4 23 13 23C12.1667 23 11.4583 22.7083 10.875 22.125C10.2917 21.5417 10 20.8333 10 20C10 19.1667 10.2917 18.4583 10.875 17.875C11.4583 17.2917 12.1667 17 13 17C13.4 17 13.775 17.0708 14.125 17.2125C14.475 17.3542 14.7833 17.55 15.05 17.8L22.075 13.7C22.0417 13.5833 22.0208 13.4708 22.0125 13.3625C22.0042 13.2542 22 13.1333 22 13C22 12.1667 22.2917 11.4583 22.875 10.875C23.4583 10.2917 24.1667 10 25 10C25.8333 10 26.5417 10.2917 27.125 10.875C27.7083 11.4583 28 12.1667 28 13C28 13.8333 27.7083 14.5417 27.125 15.125C26.5417 15.7083 25.8333 16 25 16C24.6 16 24.225 15.9292 23.875 15.7875C23.525 15.6458 23.2167 15.45 22.95 15.2L15.925 19.3C15.9583 19.4167 15.9792 19.5292 15.9875 19.6375C15.9958 19.7458 16 19.8667 16 20C16 20.1333 15.9958 20.2542 15.9875 20.3625C15.9792 20.4708 15.9583 20.5833 15.925 20.7L22.95 24.8C23.2167 24.55 23.525 24.3542 23.875 24.2125C24.225 24.0708 24.6 24 25 24C25.8333 24 26.5417 24.2917 27.125 24.875C27.7083 25.4583 28 26.1667 28 27C28 27.8333 27.7083 28.5417 27.125 29.125C26.5417 29.7083 25.8333 30 25 30ZM25 28C25.2833 28 25.5208 27.9042 25.7125 27.7125C25.9042 27.5208 26 27.2833 26 27C26 26.7167 25.9042 26.4792 25.7125 26.2875C25.5208 26.0958 25.2833 26 25 26C24.7167 26 24.4792 26.0958 24.2875 26.2875C24.0958 26.4792 24 26.7167 24 27C24 27.2833 24.0958 27.5208 24.2875 27.7125C24.4792 27.9042 24.7167 28 25 28ZM13 21C13.2833 21 13.5208 20.9042 13.7125 20.7125C13.9042 20.5208 14 20.2833 14 20C14 19.7167 13.9042 19.4792 13.7125 19.2875C13.5208 19.0958 13.2833 19 13 19C12.7167 19 12.4792 19.0958 12.2875 19.2875C12.0958 19.4792 12 19.7167 12 20C12 20.2833 12.0958 20.5208 12.2875 20.7125C12.4792 20.9042 12.7167 21 13 21ZM25 14C25.2833 14 25.5208 13.9042 25.7125 13.7125C25.9042 13.5208 26 13.2833 26 13C26 12.7167 25.9042 12.4792 25.7125 12.2875C25.5208 12.0958 25.2833 12 25 12C24.7167 12 24.4792 12.0958 24.2875 12.2875C24.0958 12.4792 24 12.7167 24 13C24 13.2833 24.0958 13.5208 24.2875 13.7125C24.4792 13.9042 24.7167 14 25 14Z" fill="#1C1B1F"/>
  </g>
</svg>