<svg xmlns="http://www.w3.org/2000/svg" width="40" height="40" viewBox="0 0 40 40" fill="none">
  <rect width="40" height="40" rx="20" fill="white"/>
  <mask id="mask0_27968_165179" style="mask-type:alpha" maskUnits="userSpaceOnUse" x="9" y="9" width="22" height="22">
    <rect x="9" y="9" width="22" height="22" fill="#D9D9D9"/>
  </mask>
  <g mask="url(#mask0_27968_165179)">
    <path d="M24.5859 29.1667C23.822 29.1667 23.1727 28.8993 22.638 28.3646C22.1033 27.8299 21.8359 27.1806 21.8359 26.4167C21.8359 26.325 21.8589 26.1112 21.9047 25.775L15.4651 22.0167C15.2207 22.2459 14.938 22.4254 14.6172 22.5552C14.2964 22.6851 13.9526 22.75 13.5859 22.75C12.822 22.75 12.1727 22.4827 11.638 21.948C11.1033 21.4132 10.8359 20.7639 10.8359 20C10.8359 19.2362 11.1033 18.5868 11.638 18.0521C12.1727 17.5174 12.822 17.25 13.5859 17.25C13.9526 17.25 14.2964 17.315 14.6172 17.4448C14.938 17.5747 15.2207 17.7542 15.4651 17.9834L21.9047 14.225C21.8741 14.1181 21.855 14.015 21.8474 13.9157C21.8398 13.8164 21.8359 13.7056 21.8359 13.5834C21.8359 12.8195 22.1033 12.1702 22.638 11.6355C23.1727 11.1007 23.822 10.8334 24.5859 10.8334C25.3498 10.8334 25.9991 11.1007 26.5339 11.6355C27.0686 12.1702 27.3359 12.8195 27.3359 13.5834C27.3359 14.3473 27.0686 14.9966 26.5339 15.5313C25.9991 16.066 25.3498 16.3334 24.5859 16.3334C24.2193 16.3334 23.8755 16.2684 23.5547 16.1386C23.2339 16.0087 22.9512 15.8292 22.7068 15.6L16.2672 19.3584C16.2977 19.4653 16.3168 19.5684 16.3245 19.6677C16.3321 19.7671 16.3359 19.8778 16.3359 20C16.3359 20.1223 16.3321 20.233 16.3245 20.3323C16.3168 20.4316 16.2977 20.5348 16.2672 20.6417L22.7068 24.4C22.9512 24.1709 23.2339 23.9914 23.5547 23.8615C23.8755 23.7316 24.2193 23.6667 24.5859 23.6667C25.3498 23.6667 25.9991 23.9341 26.5339 24.4688C27.0686 25.0035 27.3359 25.6528 27.3359 26.4167C27.3359 27.1806 27.0686 27.8299 26.5339 28.3646C25.9991 28.8993 25.3498 29.1667 24.5859 29.1667ZM24.5859 27.3334C24.8457 27.3334 25.0634 27.2455 25.2391 27.0698C25.4148 26.8941 25.5026 26.6764 25.5026 26.4167C25.5026 26.157 25.4148 25.9393 25.2391 25.7636C25.0634 25.5879 24.8457 25.5 24.5859 25.5C24.3262 25.5 24.1085 25.5879 23.9328 25.7636C23.7571 25.9393 23.6693 26.157 23.6693 26.4167C23.6693 26.6764 23.7571 26.8941 23.9328 27.0698C24.1085 27.2455 24.3262 27.3334 24.5859 27.3334ZM13.5859 20.9167C13.8457 20.9167 14.0634 20.8289 14.2391 20.6532C14.4148 20.4775 14.5026 20.2598 14.5026 20C14.5026 19.7403 14.4148 19.5226 14.2391 19.3469C14.0634 19.1712 13.8457 19.0834 13.5859 19.0834C13.3262 19.0834 13.1085 19.1712 12.9328 19.3469C12.7571 19.5226 12.6693 19.7403 12.6693 20C12.6693 20.2598 12.7571 20.4775 12.9328 20.6532C13.1085 20.8289 13.3262 20.9167 13.5859 20.9167ZM24.5859 14.5C24.8457 14.5 25.0634 14.4122 25.2391 14.2365C25.4148 14.0608 25.5026 13.8431 25.5026 13.5834C25.5026 13.3237 25.4148 13.1059 25.2391 12.9302C25.0634 12.7546 24.8457 12.6667 24.5859 12.6667C24.3262 12.6667 24.1085 12.7546 23.9328 12.9302C23.7571 13.1059 23.6693 13.3237 23.6693 13.5834C23.6693 13.8431 23.7571 14.0608 23.9328 14.2365C24.1085 14.4122 24.3262 14.5 24.5859 14.5Z" fill="#1C1B1F"/>
  </g>
</svg>