<svg viewBox="0 0 20 20" xmlns="http://www.w3.org/2000/svg" data-v-545b9964="" class=""><path d="M19.07 18.54l.071-.07-.07-.071-5.514-5.513a7.192 7.192 0 001.793-4.761A7.229 7.229 0 008.125.9 7.229 7.229 0 00.9 8.125a7.229 7.229 0 007.225 7.225c1.823 0 3.49-.676 4.76-1.793l5.514 5.514.07.07.072-.07.53-.53zM8.126 1.85A6.278 6.278 0 0114.4 8.125 6.278 6.278 0 018.125 14.4 6.278 6.278 0 011.85 8.125 6.278 6.278 0 018.125 1.85z" fill="inherit" stroke="inherit" stroke-width="1" data-v-545b9964=""></path></svg>