<svg xmlns="http://www.w3.org/2000/svg" width="28" height="28" viewBox="0 0 28 28" fill="none">
  <g clip-path="url(#clip0_3962_171791)">
    <path d="M10.0785 20V10.5542H7.07745V20H10.0785ZM8.57836 9.26379C9.62488 9.26379 10.2763 8.53846 10.2763 7.63205C10.2568 6.70519 9.62492 6 8.59822 6C7.57168 6 6.90039 6.70521 6.90039 7.63205C6.90039 8.53851 7.55164 9.26379 8.55877 9.26379H8.57836ZM11.7396 20H14.7406V14.725C14.7406 14.4427 14.7601 14.1607 14.8394 13.9589C15.0563 13.3948 15.5501 12.8106 16.3791 12.8106C17.4651 12.8106 17.8995 13.6769 17.8995 14.9466V19.9999H20.9004V14.5838C20.9004 11.6824 19.4198 10.3325 17.4453 10.3325C15.8264 10.3325 15.1156 11.2792 14.7207 11.924H14.7407V10.554H11.7396C11.779 11.4404 11.7396 20 11.7396 20Z" fill="#26201A"/>
    <path opacity="0.5" d="M13.9996 27.6496C21.5383 27.6496 27.6496 21.5383 27.6496 13.9996C27.6496 6.46092 21.5383 0.349609 13.9996 0.349609C6.46092 0.349609 0.349609 6.46092 0.349609 13.9996C0.349609 21.5383 6.46092 27.6496 13.9996 27.6496Z" stroke="#26201A" stroke-width="0.7"/>
  </g>
  <defs>
    <clipPath id="clip0_3962_171791">
      <rect width="28" height="28" fill="white"/>
    </clipPath>
  </defs>
</svg>