<svg xmlns="http://www.w3.org/2000/svg" width="28" height="28" viewBox="0 0 28 28" fill="none">
  <g clip-path="url(#clip0_4963_3983)">
    <path d="M19.7937 11.0073C19.7354 12.4702 18.8517 14.4732 17.1425 17.0164C15.3751 19.6721 13.8796 21 12.6559 21C11.8985 21 11.2575 20.1898 10.7331 18.5693L9.6843 14.1131C9.29585 12.4927 8.87826 11.6825 8.43154 11.6825C8.33443 11.6825 7.99454 11.9188 7.41186 12.3914L6.80005 11.4799C7.44099 10.8273 8.07222 10.1746 8.69374 9.52191C9.54833 8.66668 10.1893 8.21656 10.6166 8.17154C11.6265 8.05901 12.2481 8.85798 12.4811 10.5684C12.7336 12.4139 12.9084 13.5617 13.0055 14.0119C13.2969 15.5423 13.6173 16.3075 13.9669 16.3075C14.2389 16.3075 14.6467 15.8124 15.1906 14.8221C15.7344 13.8318 16.0257 13.0779 16.0646 12.5602C16.1423 11.705 15.8509 11.2774 15.1906 11.2774C14.8798 11.2774 14.5593 11.3562 14.2291 11.5137C14.8701 9.10556 16.0937 7.93524 17.9 8.00276C19.2401 8.04778 19.8714 9.04927 19.7937 11.0073Z" fill="#26201A"/>
    <path opacity="0.5" d="M13.9996 27.6496C21.5383 27.6496 27.6496 21.5383 27.6496 13.9996C27.6496 6.46092 21.5383 0.349609 13.9996 0.349609C6.46092 0.349609 0.349609 6.46092 0.349609 13.9996C0.349609 21.5383 6.46092 27.6496 13.9996 27.6496Z" stroke="#26201A" stroke-width="0.7"/>
  </g>
  <defs>
    <clipPath id="clip0_4963_3983">
      <rect width="28" height="28" fill="white"/>
    </clipPath>
  </defs>
</svg>