<svg xmlns="http://www.w3.org/2000/svg" width="28" height="28" viewBox="0 0 28 28" fill="none">
  <g clip-path="url(#clip0_3962_171803)">
    <path d="M20.3998 9.69413C20.3176 9.60628 20.1867 9.58444 20.0806 9.64093C19.9518 9.69987 19.8183 9.74796 19.6816 9.78457C19.8844 9.53173 20.0379 9.24298 20.1338 8.93337C20.16 8.82606 20.1172 8.71371 20.0262 8.65113C19.9352 8.58848 19.815 8.58862 19.7242 8.65141C19.3002 8.88591 18.8479 9.06469 18.3782 9.18341C17.8737 8.68144 17.1906 8.40018 16.479 8.40137C15.9111 8.41383 15.3582 8.58526 14.883 8.89613C13.8722 9.46537 13.6966 10.7794 13.7711 11.5934C11.8971 11.4353 10.1684 10.521 8.98311 9.06105C8.9346 8.9865 8.85375 8.93911 8.76499 8.93337C8.67623 8.93939 8.59643 8.98923 8.55219 9.06637C8.00409 10.0154 8.04966 11.1948 8.66923 12.0988C8.58943 12.0456 8.50431 11.9817 8.41919 11.9126C8.33981 11.8339 8.21976 11.8132 8.11861 11.8608C8.01753 11.9084 7.95691 12.0141 7.96699 12.1254C7.98309 13.1154 8.47904 14.0359 9.29699 14.5939L9.08951 14.5353C8.99081 14.5046 8.88329 14.5339 8.81378 14.6102C8.7442 14.6867 8.72516 14.7964 8.76499 14.8918C9.18247 15.8348 10.0003 16.5415 10.9941 16.8176C10.0881 17.3409 9.03869 17.5609 7.99891 17.4454C7.87319 17.4298 7.75398 17.5051 7.71387 17.6253C7.67383 17.7454 7.72409 17.8771 7.83399 17.9401C9.08489 18.6698 10.5088 19.0501 11.957 19.0414C14.0022 19.0246 15.941 18.127 17.277 16.5782C18.6078 15.1519 19.3077 13.2495 19.2188 11.3008C19.6928 10.9385 20.1013 10.4977 20.4264 9.99737C20.4819 9.9007 20.4714 9.77967 20.3998 9.69413Z" fill="#26201A"/>
    <path opacity="0.5" d="M13.9996 27.6496C21.5383 27.6496 27.6496 21.5383 27.6496 13.9996C27.6496 6.46092 21.5383 0.349609 13.9996 0.349609C6.46092 0.349609 0.349609 6.46092 0.349609 13.9996C0.349609 21.5383 6.46092 27.6496 13.9996 27.6496Z" stroke="#26201A" stroke-width="0.7"/>
  </g>
  <defs>
    <clipPath id="clip0_3962_171803">
      <rect width="28" height="28" fill="white"/>
    </clipPath>
  </defs>
</svg>