<svg xmlns="http://www.w3.org/2000/svg" width="28" height="28" viewBox="0 0 28 28" fill="none">
  <g clip-path="url(#clip0_3962_171797)">
    <path d="M8.19922 12.3053C8.19922 11.7861 8.31641 11.2969 8.55078 10.8377C8.78516 10.3786 9.10859 9.97837 9.52109 9.63702C9.93359 9.29567 10.4086 9 10.9461 8.75C11.4836 8.5 12.0617 8.3125 12.6805 8.1875C13.2992 8.0625 13.9305 8 14.5742 8C15.5617 8 16.4805 8.15986 17.3305 8.47957C18.1805 8.79928 18.8711 9.26442 19.4023 9.875C19.9336 10.4856 20.1992 11.1755 20.1992 11.9447C20.1992 12.4062 20.1398 12.8582 20.0211 13.3005C19.9023 13.7428 19.7148 14.1683 19.4586 14.5769C19.2023 14.9856 18.8898 15.345 18.5211 15.655C18.1523 15.9651 17.6992 16.2127 17.1617 16.3978C16.6242 16.5829 16.0336 16.6755 15.3898 16.6755C14.9648 16.6755 14.543 16.5986 14.1242 16.4447C13.7055 16.2909 13.4055 16.0793 13.2242 15.8101C13.1617 15.9976 13.0742 16.268 12.9617 16.6214C12.8492 16.9748 12.7758 17.2031 12.7414 17.3065C12.707 17.4099 12.643 17.5805 12.5492 17.8185C12.4555 18.0565 12.3742 18.2272 12.3055 18.3305C12.2367 18.4339 12.1367 18.5841 12.0055 18.7812C11.8742 18.9784 11.7305 19.1647 11.5742 19.3401C11.418 19.5156 11.2242 19.7236 10.993 19.9639L10.8617 20L10.7773 19.9279C10.6836 19.1731 10.6367 18.7212 10.6367 18.5721C10.6367 18.1298 10.7039 17.6334 10.8383 17.0829C10.9727 16.5325 11.1805 15.8413 11.4617 15.0096C11.743 14.1779 11.9055 13.6899 11.9492 13.5457C11.7492 13.2332 11.6492 12.8269 11.6492 12.3269C11.6492 11.9279 11.8117 11.5529 12.1367 11.2019C12.4617 10.851 12.8742 10.6755 13.3742 10.6755C13.7555 10.6755 14.0523 10.7728 14.2648 10.9675C14.4773 11.1623 14.5836 11.4087 14.5836 11.7067C14.5836 12.024 14.4461 12.4832 14.1711 13.0841C13.8961 13.6851 13.7586 14.1346 13.7586 14.4327C13.7586 14.7356 13.8992 14.9868 14.1805 15.1863C14.4617 15.3858 14.8023 15.4856 15.2023 15.4856C15.5461 15.4856 15.8648 15.4255 16.1586 15.3053C16.4523 15.1851 16.6977 15.0216 16.8945 14.8149C17.0914 14.6082 17.2664 14.3798 17.4195 14.1298C17.5727 13.8798 17.6914 13.6142 17.7758 13.3329C17.8602 13.0517 17.9227 12.7849 17.9633 12.5325C18.0039 12.28 18.0242 12.0409 18.0242 11.8149C18.0242 10.9832 17.682 10.3353 16.9977 9.87139C16.3133 9.40745 15.4211 9.17548 14.3211 9.17548C13.0711 9.17548 12.0273 9.48678 11.1898 10.1094C10.3523 10.732 9.93359 11.5216 9.93359 12.4784C9.93359 12.6899 9.97266 12.8942 10.0508 13.0913C10.1289 13.2885 10.2133 13.4447 10.3039 13.5601C10.3945 13.6755 10.4789 13.7849 10.557 13.8882C10.6352 13.9916 10.6742 14.0649 10.6742 14.1082C10.6742 14.2428 10.6273 14.4183 10.5336 14.6346C10.4398 14.851 10.3242 14.9591 10.1867 14.9591C10.1742 14.9591 10.1211 14.9519 10.0273 14.9375C9.70859 14.8654 9.42578 14.7308 9.17891 14.5337C8.93203 14.3365 8.74141 14.1094 8.60703 13.8522C8.47266 13.595 8.37109 13.3353 8.30234 13.0733C8.23359 12.8113 8.19922 12.5553 8.19922 12.3053Z" fill="#26201A"/>
    <path opacity="0.5" d="M13.9996 27.6496C21.5383 27.6496 27.6496 21.5383 27.6496 13.9996C27.6496 6.46092 21.5383 0.349609 13.9996 0.349609C6.46092 0.349609 0.349609 6.46092 0.349609 13.9996C0.349609 21.5383 6.46092 27.6496 13.9996 27.6496Z" stroke="#26201A" stroke-width="0.7"/>
  </g>
  <defs>
    <clipPath id="clip0_3962_171797">
      <rect width="28" height="28" fill="white"/>
    </clipPath>
  </defs>
</svg>