<svg xmlns="http://www.w3.org/2000/svg" width="28" height="28" viewBox="0 0 28 28" fill="none">
  <g clip-path="url(#clip0_3962_171800)">
    <path fill-rule="evenodd" clip-rule="evenodd" d="M12.348 15.7023V11.2063L16.6704 13.4623L12.348 15.7023ZM21.84 10.4279C21.84 10.4279 21.684 9.32468 21.204 8.83908C20.596 8.20228 19.9136 8.19908 19.6008 8.16148C17.3624 7.99988 14.0032 7.99988 14.0032 7.99988H13.9968C13.9968 7.99988 10.6384 7.99988 8.3992 8.16148C8.0864 8.19908 7.4048 8.20148 6.796 8.83908C6.316 9.32468 6.16 10.4279 6.16 10.4279C6.16 10.4279 6 11.7223 6 13.0175V14.2311C6 15.5255 6.16 16.8207 6.16 16.8207C6.16 16.8207 6.316 17.9231 6.796 18.4087C7.404 19.0463 8.204 19.0255 8.56 19.0927C9.84 19.2151 14 19.2527 14 19.2527C14 19.2527 17.3624 19.2479 19.6008 19.0863C19.9136 19.0487 20.596 19.0463 21.204 18.4087C21.684 17.9231 21.84 16.8207 21.84 16.8207C21.84 16.8207 22 15.5255 22 14.2311V13.0175C22 11.7223 21.84 10.4279 21.84 10.4279Z" fill="#26201A"/>
    <path opacity="0.5" d="M13.9996 27.6496C21.5383 27.6496 27.6496 21.5383 27.6496 13.9996C27.6496 6.46092 21.5383 0.349609 13.9996 0.349609C6.46092 0.349609 0.349609 6.46092 0.349609 13.9996C0.349609 21.5383 6.46092 27.6496 13.9996 27.6496Z" stroke="#26201A" stroke-width="0.7"/>
  </g>
  <defs>
    <clipPath id="clip0_3962_171800">
      <rect width="28" height="28" fill="white"/>
    </clipPath>
  </defs>
</svg>