<svg xmlns="http://www.w3.org/2000/svg" width="28" height="28" viewBox="0 0 28 28" fill="none">
  <g clip-path="url(#clip0_3962_171810)">
    <path d="M14.7472 20.3V14.5525H16.6764L16.9653 12.3126H14.7472V10.8826C14.7472 10.2341 14.9273 9.79211 15.8572 9.79211L17.0433 9.79162V7.78822C16.8382 7.76092 16.1341 7.69995 15.3149 7.69995C13.6049 7.69995 12.4341 8.74379 12.4341 10.6607V12.3126H10.5V14.5525H12.4341V20.3H14.7472Z" fill="#26201A"/>
    <path opacity="0.5" d="M13.9996 27.6496C21.5383 27.6496 27.6496 21.5383 27.6496 13.9996C27.6496 6.46092 21.5383 0.349609 13.9996 0.349609C6.46092 0.349609 0.349609 6.46092 0.349609 13.9996C0.349609 21.5383 6.46092 27.6496 13.9996 27.6496Z" stroke="#26201A" stroke-width="0.7"/>
  </g>
  <defs>
    <clipPath id="clip0_3962_171810">
      <rect width="28" height="28" fill="white"/>
    </clipPath>
  </defs>
</svg>