<svg xmlns="http://www.w3.org/2000/svg" width="28" height="28" viewBox="0 0 28 28" fill="none">
  <g clip-path="url(#clip0_3962_171807)">
    <path fill-rule="evenodd" clip-rule="evenodd" d="M16.8004 8.40039H11.2004C9.66053 8.40039 8.40039 9.65997 8.40039 11.2004V16.8004C8.40039 18.3403 9.66053 19.6004 11.2004 19.6004H16.8004C18.3403 19.6004 19.6004 18.3403 19.6004 16.8004V11.2004C19.6004 9.65997 18.3403 8.40039 16.8004 8.40039ZM14.0004 16.3338C12.7116 16.3338 11.667 15.2889 11.667 14.0006C11.667 12.7118 12.7116 11.6672 14.0004 11.6672C15.2887 11.6672 16.3338 12.7118 16.3338 14.0006C16.3338 15.2889 15.2887 16.3338 14.0004 16.3338ZM16.3338 10.9672C16.3338 11.3538 16.6468 11.6672 17.0338 11.6672C17.4207 11.6672 17.7338 11.3538 17.7338 10.9672C17.7338 10.5807 17.4207 10.2672 17.0338 10.2672C16.6468 10.2672 16.3338 10.5807 16.3338 10.9672Z" fill="#26201A"/>
    <path opacity="0.5" d="M13.9996 27.6496C21.5383 27.6496 27.6496 21.5383 27.6496 13.9996C27.6496 6.46092 21.5383 0.349609 13.9996 0.349609C6.46092 0.349609 0.349609 6.46092 0.349609 13.9996C0.349609 21.5383 6.46092 27.6496 13.9996 27.6496Z" stroke="#26201A" stroke-width="0.7"/>
  </g>
  <defs>
    <clipPath id="clip0_3962_171807">
      <rect width="28" height="28" fill="white"/>
    </clipPath>
  </defs>
</svg>