<svg width="16" height="15" viewBox="0 0 16 15" fill="none" xmlns="http://www.w3.org/2000/svg">
<g id="Layer_1" clip-path="url(#clip0_26018_57819)">
<path id="Vector" d="M6.22539 6.35938C6.9723 7.35489 8.99888 7.38594 9.77675 6.36566C10.0651 6.73385 10.4278 6.99964 10.8964 7.06692C11.3515 7.13235 11.813 7.15009 12.2652 7.02626C12.6424 6.92312 12.9368 6.69355 13.1897 6.38784C13.5945 6.8843 14.1101 7.12348 14.754 7.10647C14.7581 7.18004 14.7649 7.23918 14.7649 7.2987C14.7652 9.69599 14.7656 12.0933 14.7649 14.4902C14.7649 14.8691 14.6324 14.9989 14.2459 14.9989C11.9701 14.9992 9.6943 14.9989 7.4185 14.9989H7.20883V14.7675C7.20883 12.925 7.20883 11.0822 7.20883 9.23983C7.20883 8.80436 7.08609 8.68458 6.64137 8.68458C5.67136 8.68458 4.70135 8.68458 3.73133 8.68458C3.36198 8.68458 3.22543 8.81988 3.22543 9.18659C3.22543 11.0416 3.22543 12.8966 3.22543 14.7512V14.9808C3.17432 14.9878 3.13291 14.9978 3.0915 14.9981C2.63149 14.9992 2.1711 15.0011 1.71109 14.9981C1.38651 14.9959 1.23914 14.8532 1.23914 14.5368C1.23765 12.1088 1.2384 9.68084 1.23914 7.25286C1.23914 7.21072 1.24623 7.16895 1.24698 7.16044C1.55067 7.08429 1.85361 7.05028 2.11663 6.93051C2.3748 6.81296 2.59231 6.60853 2.80273 6.40669C2.8143 6.40965 2.83071 6.40854 2.83668 6.41593C3.24931 6.91425 3.78244 7.139 4.42862 7.10278C4.7006 7.08762 4.97855 7.09243 5.24194 7.03513C5.64935 6.94604 5.96982 6.70058 6.22576 6.35938H6.22539ZM12.7778 10.6671C12.7778 10.1621 12.7789 9.65681 12.7775 9.15184C12.7763 8.8343 12.6286 8.68569 12.3111 8.68532C11.4284 8.68385 10.5461 8.68385 9.66334 8.68532C9.34398 8.68569 9.19624 8.83282 9.19587 9.15074C9.19475 10.1548 9.19475 11.1588 9.19587 12.1628C9.19587 12.477 9.34585 12.6308 9.66185 12.6319C10.5442 12.6349 11.4269 12.6349 12.3096 12.6319C12.6264 12.6308 12.7763 12.4774 12.7775 12.1643C12.7793 11.6652 12.7778 11.1665 12.7778 10.6675V10.6671Z" fill="currentColor"/>
<path id="Vector_2" d="M8.00168 0.0031013C8.23149 0.0031013 8.46169 0.00716764 8.6915 0.00125296C8.79671 -0.00133471 8.84633 0.0260207 8.85902 0.140618C9.01982 1.61522 9.18696 3.08909 9.34738 4.56406C9.37462 4.81359 9.41006 5.0694 9.38171 5.31596C9.31754 5.87601 8.83029 6.29928 8.26283 6.31407C8.02182 6.32035 7.77447 6.32663 7.53943 6.28301C6.93914 6.17174 6.53733 5.60578 6.60448 5.0047C6.78468 3.38963 6.96637 1.77492 7.14321 0.159471C7.15553 0.0456131 7.1891 -0.00318305 7.31222 0.00125296C7.54167 0.00975532 7.77186 0.00384064 8.00205 0.00347097L8.00168 0.0031013Z" fill="currentColor"/>
<path id="Vector_3" d="M9.64149 0.00357147C10.1746 0.00357147 10.6887 -0.000125204 11.2028 0.0102255C11.2442 0.0109648 11.3039 0.101533 11.3207 0.160311C11.5741 1.04751 11.8218 1.93619 12.0706 2.8245C12.2728 3.5472 12.4765 4.26953 12.6769 4.9926C12.8817 5.73157 12.4318 6.31564 11.6584 6.31786C11.5278 6.31786 11.3976 6.31897 11.267 6.31786C10.7223 6.31232 10.3108 5.96446 10.2489 5.43177C10.1034 4.18488 9.96831 2.93651 9.82877 1.68926C9.77318 1.1939 9.71685 0.698546 9.66126 0.203192C9.65454 0.143675 9.64932 0.084159 9.64111 0.00394114L9.64149 0.00357147Z" fill="currentColor"/>
<path id="Vector_4" d="M6.36124 0.0152168C6.31796 0.410391 6.27655 0.794846 6.23327 1.1793C6.08889 2.46353 5.94451 3.74775 5.79938 5.03198C5.78073 5.19685 5.76879 5.36394 5.73409 5.52548C5.6453 5.9384 5.38973 6.2212 4.97002 6.28404C4.66222 6.32988 4.33354 6.33099 4.02761 6.27739C3.49895 6.1846 3.15908 5.64821 3.29525 5.13289C3.58737 4.02722 3.90375 2.92746 4.21117 1.82548C4.36637 1.26876 4.52717 0.713149 4.67715 0.154951C4.70849 0.0385059 4.75661 -0.00178789 4.87899 6.04466e-05C5.31997 0.0074538 5.76132 0.00264812 6.20231 0.00338746C6.25081 0.00338746 6.29894 0.0104111 6.36124 0.0152168Z" fill="currentColor"/>
<path id="Vector_5" d="M3.89517 0.00273135C3.68773 0.746133 3.48963 1.45626 3.29077 2.1664C2.98224 3.26837 2.67295 4.36998 2.36478 5.47233C2.19988 6.06232 1.86336 6.31776 1.24479 6.31702C1.12056 6.31702 0.994454 6.32331 0.872829 6.30482C0.170689 6.19651 -0.188963 5.54368 0.0994298 4.89084C0.507209 3.96705 0.924687 3.04731 1.33806 2.12573C1.56975 1.60894 1.80777 1.09436 2.03125 0.573868C2.20026 0.180541 2.4879 -0.00724968 2.91695 0.00125268C3.23295 0.00753702 3.54932 0.00236168 3.89517 0.00236168V0.00273135Z" fill="currentColor"/>
<path id="Vector_6" d="M12.1244 0.0313058C12.5516 0.0313058 12.9732 0.00395036 13.3891 0.0405474C13.6828 0.0664242 13.8495 0.301533 13.9663 0.563257C14.4121 1.56469 14.8624 2.56427 15.3109 3.56459C15.5049 3.99747 15.7004 4.42924 15.8918 4.86323C16.2223 5.61218 15.7634 6.30863 14.9363 6.31676C14.8307 6.31787 14.7248 6.31861 14.6192 6.31602C14.1842 6.30567 13.8018 6.0384 13.6843 5.62327C13.1627 3.78232 12.6504 1.93879 12.1352 0.0959976C12.1289 0.0734478 12.127 0.0497891 12.124 0.0309361L12.1244 0.0313058Z" fill="currentColor"/>
</g>
<defs>
<clipPath id="clip0_26018_57819">
<rect width="16" height="15" fill="white"/>
</clipPath>
</defs>
</svg>
