<svg xmlns="http://www.w3.org/2000/svg" xmlns:xlink="http://www.w3.org/1999/xlink" width="80" height="80" viewBox="0 0 16 16"><defs><clipPath id="a"><path d="M8,16a8,8,0,1,1,8-8A8.009,8.009,0,0,1,8,16ZM5.2,7.768a1,1,0,0,0-.708,1.707l1.536,1.535a1,1,0,0,0,1.414,0L11.51,6.939A1,1,0,1,0,10.1,5.525L6.732,8.889,5.9,8.06A.992.992,0,0,0,5.2,7.768Z" fill="none"/></clipPath></defs><rect width="12" height="9" transform="translate(2 4)" fill="#fff"/><path d="M8,16a8,8,0,1,1,8-8A8.009,8.009,0,0,1,8,16ZM5.2,7.768a1,1,0,0,0-.708,1.707l1.536,1.535a1,1,0,0,0,1.414,0L11.51,6.939A1,1,0,1,0,10.1,5.525L6.732,8.889,5.9,8.06A.992.992,0,0,0,5.2,7.768Z" fill="none"/><g clip-path="url(#a)"><rect width="16" height="16" fill="var(--successText)"/></g></svg>