<svg xmlns="http://www.w3.org/2000/svg" width="24" height="24" viewBox="0 0 24 24" fill="none">
  <path d="M12 0C5.38336 0 7.74381e-05 5.3833 7.74381e-05 12C7.74381e-05 14.0661 0.533815 16.0977 1.54599 17.8904L0.0193817 23.3374C-0.0307051 23.5163 0.0178165 23.7083 0.147207 23.8414C0.246859 23.9442 0.382511 24 0.521815 24C0.563554 24 0.605815 23.9948 0.647032 23.9849L6.33188 22.5767C8.0677 23.5085 10.0227 24 12 24C18.6167 24 24 18.6167 24 12C24 5.3833 18.6167 0 12 0ZM18.0365 16.2344C17.7798 16.945 16.5485 17.5936 15.9569 17.6807C15.4258 17.7584 14.7538 17.7918 14.016 17.5602C13.5689 17.4193 12.995 17.2325 12.2599 16.919C9.16961 15.601 7.15153 12.5285 6.9971 12.3256C6.84319 12.1226 5.73919 10.6763 5.73919 9.17948C5.73919 7.68261 6.53484 6.94643 6.81762 6.64174C7.1004 6.33704 7.43379 6.26087 7.63936 6.26087C7.84492 6.26087 8.04996 6.26348 8.22996 6.27183C8.41936 6.28122 8.67344 6.20035 8.92335 6.79409C9.18005 7.40348 9.79622 8.90035 9.87239 9.05322C9.94961 9.20556 10.0007 9.38348 9.89848 9.58644C9.79622 9.78939 9.74509 9.91617 9.59066 10.0941C9.43622 10.272 9.26718 10.4906 9.1284 10.6273C8.97396 10.7791 8.81379 10.9435 8.99327 11.2482C9.17274 11.5529 9.791 12.5489 10.7072 13.3555C11.8837 14.3917 12.8766 14.713 13.1844 14.8654C13.4922 15.0177 13.6722 14.9922 13.8517 14.7892C14.0312 14.5857 14.6218 13.9007 14.8268 13.5965C15.0319 13.2923 15.2374 13.3424 15.5202 13.4442C15.803 13.5454 17.3176 14.281 17.6254 14.4334C17.9332 14.5857 18.1388 14.6619 18.216 14.7887C18.2932 14.915 18.2932 15.5243 18.0365 16.2344Z" fill="#31B34A"/>
</svg>